<svg xmlns="http://www.w3.org/2000/svg" xmlns:xlink="http://www.w3.org/1999/xlink" 
style="fill-rule: nonzero; stroke-linecap: round; stroke-linejoin: round; transform: scale(1,-1);" 
version="1.1" 
viewbox="          225.691727            45.374001          7369.065430          5600.615723" 
width="100%" height="100%" preserveAspectRatio="xMidYMid" 
>
<style>
  .fn { font-family: Arial,Helvetica,sans-serif; }
  .fN { font-family: Arial,Helvetica,sans-serif; font-weight: bold;}
  .fr { font-family: Times,Times-Roman,Times New Roman,serif; }
  .fR { font-family: Times,Times-Roman,Times New Roman,serif; font-weight: bold;}
  .fi { font-family: Times,Times-Roman,Times New Roman,serif; font-style: italic;}
  .fI { font-family: Times,Times-Roman,Times New Roman,serif; font-style: italic; font-weight: bold;}
  .fs { font-family: Zapf-Chancery,Apple Chancery,URW Chancery L,cursive;}
  .fS { font-family: Zapf-Chancery,Apple Chancery,URW Chancery L,cursive;font-weight:bold}
  .fc { font-family: Arial Narrow,Helvetica Narrow,Arial,Helvetica,sans-serif;}
  .fC { font-family: Arial Narrow,Helvetica Narrow,Arial,Helvetica,sans-serif; font-weight:bold;}
</style>
<g style="color: rgb(0, 0, 0); fill: currentColor; stroke: currentColor; stroke-width: 8">

<path fill="none" d="M 742 576 l 5935 0 l 0 4607 l -5935 0 l 0 -4607 M 1579 576 l 0 33 M 2109 576 l 0 33 M 2485 576 l 0 33 
M 2777 576 l 0 33 M 3016 576 l 0 33 M 3217 576 l 0 33 M 3392 576 l 0 33 M 3546 576 l 0 33 M 3684 576 l 0 66 
M 4590 576 l 0 33 M 5120 576 l 0 33 M 5497 576 l 0 33 M 5789 576 l 0 33 M 6027 576 l 0 33 M 6229 576 l 0 33 
M 6403 576 l 0 33 M 6557 576 l 0 33 M 1579 5150 l 0 33 M 2109 5150 l 0 33 M 2485 5150 l 0 33 M 2777 5150 l 0 33 
M 3016 5150 l 0 33 M 3217 5150 l 0 33 M 3392 5150 l 0 33 M 3546 5150 l 0 33 M 3684 5117 l 0 66 M 4590 5150 l 0 33 
M 5120 5150 l 0 33 M 5497 5150 l 0 33 M 5789 5150 l 0 33 M 6027 5150 l 0 33 M 6229 5150 l 0 33 M 6403 5150 l 0 33 
M 6557 5150 l 0 33 "/>
<text transform='translate(3639,403) scale(1,-1)'><tspan class='fn' style='font-size: 886%;'  >1</tspan></text>
<text transform='translate(1467,403) scale(1,-1)'><tspan class='fn' style='font-size: 886%;'  >0.2</tspan></text>
<text transform='translate(2666,403) scale(1,-1)'><tspan class='fn' style='font-size: 886%;'  >0.5</tspan></text>
<text transform='translate(4545,403) scale(1,-1)'><tspan class='fn' style='font-size: 886%;'  >2</tspan></text>
<text transform='translate(5744,403) scale(1,-1)'><tspan class='fn' style='font-size: 886%;'  >5</tspan></text>

<path fill="none" d="M 742 833 l 33 0 M 742 1123 l 33 0 M 742 1348 l 33 0 M 742 1532 l 33 0 M 742 1687 l 33 0 M 742 1822 l 33 0 
M 742 1941 l 33 0 M 742 2047 l 66 0 M 742 2746 l 33 0 M 742 3155 l 33 0 M 742 3445 l 33 0 M 742 3670 l 33 0 
M 742 3854 l 33 0 M 742 4009 l 33 0 M 742 4144 l 33 0 M 742 4263 l 33 0 M 742 4369 l 66 0 M 742 5068 l 33 0 
M 6644 833 l 33 0 M 6644 1123 l 33 0 M 6644 1348 l 33 0 M 6644 1532 l 33 0 M 6644 1687 l 33 0 M 6644 1822 l 33 0 
M 6644 1941 l 33 0 M 6611 2047 l 66 0 M 6644 2746 l 33 0 M 6644 3155 l 33 0 M 6644 3445 l 33 0 M 6644 3670 l 33 0 
M 6644 3854 l 33 0 M 6644 4009 l 33 0 M 6644 4144 l 33 0 M 6644 4263 l 33 0 M 6611 4369 l 66 0 M 6644 5068 l 33 0 
"/>
<text transform='translate(641,1958) scale(1,-1) rotate(-90)'><tspan class='fn' style='font-size: 886%;'  >10</tspan></text>
<text transform='translate(641,4235) scale(1,-1) rotate(-90)'><tspan class='fn' style='font-size: 886%;'  >100</tspan></text>
<text transform='translate(641,1303) scale(1,-1) rotate(-90)'><tspan class='fn' style='font-size: 886%;'  >5</tspan></text>
<text transform='translate(641,2657) scale(1,-1) rotate(-90)'><tspan class='fn' style='font-size: 886%;'  >20</tspan></text>
<text transform='translate(641,3581) scale(1,-1) rotate(-90)'><tspan class='fn' style='font-size: 886%;'  >50</tspan></text>
<text transform='translate(641,4934) scale(1,-1) rotate(-90)'><tspan class='fn' style='font-size: 886%;'  >200</tspan></text>
</g>
<g style="color: rgb(0, 0, 0); fill: currentColor; stroke: currentColor; stroke-width: 4">
<defs>
<symbol id="M1" overflow="visible">
<circle r="1" fill="none" stroke-width="1"/>
</symbol>
</defs>
<use xlink:href="#M1" transform="translate(789, 4003) scale(4.430)"/>

<path fill="none" d="M 742 4003 l 93 0 M 789 3648 l 0 617 "/>
<use xlink:href="#M1" transform="translate(880, 4407) scale(4.430)"/>

<path fill="none" d="M 835 4407 l 88 0 M 880 4056 l 0 611 "/>
<use xlink:href="#M1" transform="translate(964, 4273) scale(4.430)"/>

<path fill="none" d="M 923 4273 l 81 0 M 964 3921 l 0 613 "/>
<use xlink:href="#M1" transform="translate(1043, 4673) scale(4.430)"/>

<path fill="none" d="M 1004 4673 l 77 0 M 1043 4324 l 0 608 "/>
<use xlink:href="#M1" transform="translate(1118, 4691) scale(4.430)"/>

<path fill="none" d="M 1081 4691 l 73 0 M 1118 4342 l 0 608 "/>
<use xlink:href="#M1" transform="translate(1189, 3989) scale(4.430)"/>

<path fill="none" d="M 1154 3989 l 69 0 M 1189 3634 l 0 618 "/>
<use xlink:href="#M1" transform="translate(1256, 4333) scale(4.430)"/>

<path fill="none" d="M 1223 4333 l 65 0 M 1256 3982 l 0 612 "/>
<use xlink:href="#M1" transform="translate(1320, 4129) scale(4.430)"/>

<path fill="none" d="M 1288 4129 l 63 0 M 1320 3775 l 0 615 "/>
<use xlink:href="#M1" transform="translate(1381, 4136) scale(4.430)"/>

<path fill="none" d="M 1351 4136 l 59 0 M 1381 3782 l 0 615 "/>
<use xlink:href="#M1" transform="translate(1439, 4925) scale(4.430)"/>

<path fill="none" d="M 1410 4925 l 57 0 M 1439 4577 l 0 606 "/>
<use xlink:href="#M1" transform="translate(1494, 3970) scale(4.430)"/>

<path fill="none" d="M 1467 3970 l 54 0 M 1494 3614 l 0 618 "/>
<use xlink:href="#M1" transform="translate(1548, 4415) scale(4.430)"/>

<path fill="none" d="M 1521 4415 l 53 0 M 1548 4064 l 0 611 "/>
<use xlink:href="#M1" transform="translate(1599, 4017) scale(4.430)"/>

<path fill="none" d="M 1574 4017 l 50 0 M 1599 3662 l 0 617 "/>
<use xlink:href="#M1" transform="translate(1648, 3900) scale(4.430)"/>

<path fill="none" d="M 1624 3900 l 48 0 M 1648 3544 l 0 619 "/>
<use xlink:href="#M1" transform="translate(1696, 4593) scale(4.430)"/>

<path fill="none" d="M 1672 4593 l 47 0 M 1696 4243 l 0 610 "/>
<use xlink:href="#M1" transform="translate(1742, 4334) scale(4.430)"/>

<path fill="none" d="M 1719 4334 l 45 0 M 1742 3982 l 0 612 "/>
<use xlink:href="#M1" transform="translate(1786, 4461) scale(4.430)"/>

<path fill="none" d="M 1764 4461 l 44 0 M 1786 4111 l 0 610 "/>
<use xlink:href="#M1" transform="translate(1829, 4167) scale(4.430)"/>

<path fill="none" d="M 1808 4167 l 42 0 M 1829 3814 l 0 614 "/>
<use xlink:href="#M1" transform="translate(1871, 3939) scale(4.430)"/>

<path fill="none" d="M 1850 3939 l 41 0 M 1871 3583 l 0 619 "/>
<use xlink:href="#M1" transform="translate(1911, 3579) scale(4.430)"/>

<path fill="none" d="M 1891 3579 l 40 0 M 1911 3217 l 0 627 "/>
<use xlink:href="#M1" transform="translate(1950, 4178) scale(4.430)"/>

<path fill="none" d="M 1931 4178 l 38 0 M 1950 3825 l 0 614 "/>
<use xlink:href="#M1" transform="translate(1988, 4317) scale(4.430)"/>

<path fill="none" d="M 1969 4317 l 37 0 M 1988 3965 l 0 612 "/>
<use xlink:href="#M1" transform="translate(2025, 3669) scale(4.430)"/>

<path fill="none" d="M 2006 3669 l 37 0 M 2025 3309 l 0 625 "/>
<use xlink:href="#M1" transform="translate(2061, 3716) scale(4.430)"/>

<path fill="none" d="M 2043 3716 l 35 0 M 2061 3358 l 0 622 "/>
<use xlink:href="#M1" transform="translate(2095, 4044) scale(4.430)"/>

<path fill="none" d="M 2078 4044 l 34 0 M 2095 3689 l 0 617 "/>
<use xlink:href="#M1" transform="translate(2129, 3596) scale(4.430)"/>

<path fill="none" d="M 2112 3596 l 34 0 M 2129 3236 l 0 625 "/>
<use xlink:href="#M1" transform="translate(2162, 4176) scale(4.430)"/>

<path fill="none" d="M 2146 4176 l 33 0 M 2162 3823 l 0 614 "/>
<use xlink:href="#M1" transform="translate(2195, 3962) scale(4.430)"/>

<path fill="none" d="M 2179 3962 l 32 0 M 2195 3606 l 0 618 "/>
<use xlink:href="#M1" transform="translate(2226, 3718) scale(4.430)"/>

<path fill="none" d="M 2211 3718 l 31 0 M 2226 3359 l 0 623 "/>
<use xlink:href="#M1" transform="translate(2272, 3907) scale(4.430)"/>

<path fill="none" d="M 2242 3907 l 60 0 M 2272 3663 l 0 440 "/>
<use xlink:href="#M1" transform="translate(2331, 3687) scale(4.430)"/>

<path fill="none" d="M 2302 3687 l 57 0 M 2331 3444 l 0 438 "/>
<use xlink:href="#M1" transform="translate(2387, 3938) scale(4.430)"/>

<path fill="none" d="M 2359 3938 l 55 0 M 2387 3683 l 0 459 "/>
<use xlink:href="#M1" transform="translate(2441, 3797) scale(4.430)"/>

<path fill="none" d="M 2414 3797 l 53 0 M 2441 3557 l 0 433 "/>
<use xlink:href="#M1" transform="translate(2493, 3715) scale(4.430)"/>

<path fill="none" d="M 2467 3715 l 51 0 M 2493 3473 l 0 436 "/>
<use xlink:href="#M1" transform="translate(2543, 3427) scale(4.430)"/>

<path fill="none" d="M 2518 3427 l 49 0 M 2543 3171 l 0 460 "/>
<use xlink:href="#M1" transform="translate(2591, 3985) scale(4.430)"/>

<path fill="none" d="M 2567 3985 l 47 0 M 2591 3727 l 0 462 "/>
<use xlink:href="#M1" transform="translate(2637, 3703) scale(4.430)"/>

<path fill="none" d="M 2614 3703 l 46 0 M 2637 3463 l 0 433 "/>
<use xlink:href="#M1" transform="translate(2682, 3549) scale(4.430)"/>

<path fill="none" d="M 2660 3549 l 44 0 M 2682 3297 l 0 453 "/>
<use xlink:href="#M1" transform="translate(2725, 3490) scale(4.430)"/>

<path fill="none" d="M 2704 3490 l 42 0 M 2725 3245 l 0 442 "/>
<use xlink:href="#M1" transform="translate(2767, 3526) scale(4.430)"/>

<path fill="none" d="M 2746 3526 l 41 0 M 2767 3284 l 0 438 "/>
<use xlink:href="#M1" transform="translate(2807, 3528) scale(4.430)"/>

<path fill="none" d="M 2787 3528 l 40 0 M 2807 3283 l 0 443 "/>
<use xlink:href="#M1" transform="translate(2847, 3249) scale(4.430)"/>

<path fill="none" d="M 2827 3249 l 39 0 M 2847 3004 l 0 443 "/>
<use xlink:href="#M1" transform="translate(2885, 3516) scale(4.430)"/>

<path fill="none" d="M 2866 3516 l 38 0 M 2885 3251 l 0 475 "/>
<use xlink:href="#M1" transform="translate(2922, 3528) scale(4.430)"/>

<path fill="none" d="M 2904 3528 l 36 0 M 2922 3258 l 0 483 "/>
<use xlink:href="#M1" transform="translate(2958, 3342) scale(4.430)"/>

<path fill="none" d="M 2940 3342 l 36 0 M 2958 3097 l 0 441 "/>
<use xlink:href="#M1" transform="translate(2993, 3542) scale(4.430)"/>

<path fill="none" d="M 2976 3542 l 34 0 M 2993 3300 l 0 437 "/>
<use xlink:href="#M1" transform="translate(3027, 3421) scale(4.430)"/>

<path fill="none" d="M 3010 3421 l 34 0 M 3027 3176 l 0 442 "/>
<use xlink:href="#M1" transform="translate(3061, 3381) scale(4.430)"/>

<path fill="none" d="M 3044 3381 l 33 0 M 3061 3121 l 0 467 "/>
<use xlink:href="#M1" transform="translate(3093, 3056) scale(4.430)"/>

<path fill="none" d="M 3077 3056 l 32 0 M 3093 2785 l 0 484 "/>
<use xlink:href="#M1" transform="translate(3125, 3548) scale(4.430)"/>

<path fill="none" d="M 3109 3548 l 32 0 M 3125 3302 l 0 443 "/>
<use xlink:href="#M1" transform="translate(3156, 3184) scale(4.430)"/>

<path fill="none" d="M 3141 3184 l 30 0 M 3156 2934 l 0 449 "/>
<use xlink:href="#M1" transform="translate(3194, 3645) scale(4.430)"/>

<path fill="none" d="M 3171 3645 l 45 0 M 3194 3452 l 0 354 "/>
<use xlink:href="#M1" transform="translate(3237, 3335) scale(4.430)"/>

<path fill="none" d="M 3216 3335 l 43 0 M 3237 3136 l 0 365 "/>
<use xlink:href="#M1" transform="translate(3280, 3348) scale(4.430)"/>

<path fill="none" d="M 3259 3348 l 42 0 M 3280 3147 l 0 367 "/>
<use xlink:href="#M1" transform="translate(3321, 3512) scale(4.430)"/>

<path fill="none" d="M 3301 3512 l 40 0 M 3321 3309 l 0 371 "/>
<use xlink:href="#M1" transform="translate(3361, 3669) scale(4.430)"/>

<path fill="none" d="M 3341 3669 l 39 0 M 3361 3476 l 0 355 "/>
<use xlink:href="#M1" transform="translate(3399, 3430) scale(4.430)"/>

<path fill="none" d="M 3380 3430 l 38 0 M 3399 3217 l 0 389 "/>
<use xlink:href="#M1" transform="translate(3437, 3441) scale(4.430)"/>

<path fill="none" d="M 3418 3441 l 37 0 M 3437 3212 l 0 415 "/>
<use xlink:href="#M1" transform="translate(3474, 3648) scale(4.430)"/>

<path fill="none" d="M 3455 3648 l 36 0 M 3474 3453 l 0 359 "/>
<use xlink:href="#M1" transform="translate(3509, 3570) scale(4.430)"/>

<path fill="none" d="M 3491 3570 l 35 0 M 3509 3376 l 0 356 "/>
<use xlink:href="#M1" transform="translate(3544, 3177) scale(4.430)"/>

<path fill="none" d="M 3526 3177 l 35 0 M 3544 2968 l 0 383 "/>
<use xlink:href="#M1" transform="translate(3577, 3096) scale(4.430)"/>

<path fill="none" d="M 3561 3096 l 33 0 M 3577 2887 l 0 382 "/>
<use xlink:href="#M1" transform="translate(3610, 3020) scale(4.430)"/>

<path fill="none" d="M 3594 3020 l 32 0 M 3610 2808 l 0 387 "/>
<use xlink:href="#M1" transform="translate(3642, 3160) scale(4.430)"/>

<path fill="none" d="M 3626 3160 l 32 0 M 3642 2956 l 0 373 "/>
<use xlink:href="#M1" transform="translate(3673, 3370) scale(4.430)"/>

<path fill="none" d="M 3658 3370 l 31 0 M 3673 3170 l 0 367 "/>
<use xlink:href="#M1" transform="translate(3709, 3121) scale(4.430)"/>

<path fill="none" d="M 3689 3121 l 40 0 M 3709 2948 l 0 320 "/>
<use xlink:href="#M1" transform="translate(3748, 3228) scale(4.430)"/>

<path fill="none" d="M 3729 3228 l 39 0 M 3748 3059 l 0 314 "/>
<use xlink:href="#M1" transform="translate(3787, 3007) scale(4.430)"/>

<path fill="none" d="M 3768 3007 l 38 0 M 3787 2836 l 0 318 "/>
<use xlink:href="#M1" transform="translate(3824, 3487) scale(4.430)"/>

<path fill="none" d="M 3806 3487 l 36 0 M 3824 3314 l 0 320 "/>
<use xlink:href="#M1" transform="translate(3860, 3198) scale(4.430)"/>

<path fill="none" d="M 3842 3198 l 36 0 M 3860 3020 l 0 329 "/>
<use xlink:href="#M1" transform="translate(3895, 3440) scale(4.430)"/>

<path fill="none" d="M 3878 3440 l 35 0 M 3895 3266 l 0 322 "/>
<use xlink:href="#M1" transform="translate(3930, 3171) scale(4.430)"/>

<path fill="none" d="M 3913 3171 l 34 0 M 3930 2994 l 0 327 "/>
<use xlink:href="#M1" transform="translate(3963, 3272) scale(4.430)"/>

<path fill="none" d="M 3947 3272 l 33 0 M 3963 3101 l 0 318 "/>
<use xlink:href="#M1" transform="translate(3996, 3702) scale(4.430)"/>

<path fill="none" d="M 3980 3702 l 32 0 M 3996 3536 l 0 310 "/>
<use xlink:href="#M1" transform="translate(4028, 3608) scale(4.430)"/>

<path fill="none" d="M 4012 3608 l 31 0 M 4028 3441 l 0 310 "/>
<use xlink:href="#M1" transform="translate(4059, 3313) scale(4.430)"/>

<path fill="none" d="M 4043 3313 l 31 0 M 4059 3144 l 0 313 "/>
<use xlink:href="#M1" transform="translate(4093, 3693) scale(4.430)"/>

<path fill="none" d="M 4074 3693 l 37 0 M 4093 3540 l 0 286 "/>
<use xlink:href="#M1" transform="translate(4130, 3588) scale(4.430)"/>

<path fill="none" d="M 4111 3588 l 37 0 M 4130 3440 l 0 278 "/>
<use xlink:href="#M1" transform="translate(4165, 3748) scale(4.430)"/>

<path fill="none" d="M 4148 3748 l 35 0 M 4165 3601 l 0 276 "/>
<use xlink:href="#M1" transform="translate(4200, 3518) scale(4.430)"/>

<path fill="none" d="M 4183 3518 l 34 0 M 4200 3369 l 0 278 "/>
<use xlink:href="#M1" transform="translate(4234, 3020) scale(4.430)"/>

<path fill="none" d="M 4217 3020 l 34 0 M 4234 2868 l 0 284 "/>
<use xlink:href="#M1" transform="translate(4267, 3112) scale(4.430)"/>

<path fill="none" d="M 4251 3112 l 33 0 M 4267 2959 l 0 286 "/>
<use xlink:href="#M1" transform="translate(4300, 3273) scale(4.430)"/>

<path fill="none" d="M 4284 3273 l 32 0 M 4300 3120 l 0 285 "/>
<use xlink:href="#M1" transform="translate(4331, 3257) scale(4.430)"/>

<path fill="none" d="M 4316 3257 l 31 0 M 4331 3101 l 0 292 "/>
<use xlink:href="#M1" transform="translate(4362, 2734) scale(4.430)"/>

<path fill="none" d="M 4347 2734 l 30 0 M 4362 2575 l 0 297 "/>
<use xlink:href="#M1" transform="translate(4395, 3155) scale(4.430)"/>

<path fill="none" d="M 4377 3155 l 36 0 M 4395 3013 l 0 266 "/>
<use xlink:href="#M1" transform="translate(4430, 3112) scale(4.430)"/>

<path fill="none" d="M 4413 3112 l 34 0 M 4430 2973 l 0 262 "/>
<use xlink:href="#M1" transform="translate(4464, 2874) scale(4.430)"/>

<path fill="none" d="M 4447 2874 l 34 0 M 4464 2733 l 0 264 "/>
<use xlink:href="#M1" transform="translate(4498, 2991) scale(4.430)"/>

<path fill="none" d="M 4481 2991 l 33 0 M 4498 2847 l 0 270 "/>
<use xlink:href="#M1" transform="translate(4530, 3092) scale(4.430)"/>

<path fill="none" d="M 4514 3092 l 32 0 M 4530 2953 l 0 260 "/>
<use xlink:href="#M1" transform="translate(4562, 3101) scale(4.430)"/>

<path fill="none" d="M 4546 3101 l 31 0 M 4562 2965 l 0 256 "/>
<use xlink:href="#M1" transform="translate(4593, 3152) scale(4.430)"/>

<path fill="none" d="M 4577 3152 l 31 0 M 4593 3010 l 0 266 "/>
<use xlink:href="#M1" transform="translate(4625, 3153) scale(4.430)"/>

<path fill="none" d="M 4608 3153 l 35 0 M 4625 3024 l 0 244 "/>
<use xlink:href="#M1" transform="translate(4660, 3078) scale(4.430)"/>

<path fill="none" d="M 4643 3078 l 34 0 M 4660 2948 l 0 246 "/>
<use xlink:href="#M1" transform="translate(4693, 3305) scale(4.430)"/>

<path fill="none" d="M 4677 3305 l 33 0 M 4693 3179 l 0 239 "/>
<use xlink:href="#M1" transform="translate(4726, 3216) scale(4.430)"/>

<path fill="none" d="M 4710 3216 l 32 0 M 4726 3091 l 0 237 "/>
<use xlink:href="#M1" transform="translate(4758, 3168) scale(4.430)"/>

<path fill="none" d="M 4742 3168 l 31 0 M 4758 3040 l 0 242 "/>
<use xlink:href="#M1" transform="translate(4789, 3318) scale(4.430)"/>

<path fill="none" d="M 4773 3318 l 31 0 M 4789 3191 l 0 240 "/>
<use xlink:href="#M1" transform="translate(4821, 3665) scale(4.430)"/>

<path fill="none" d="M 4804 3665 l 34 0 M 4821 3550 l 0 218 "/>
<use xlink:href="#M1" transform="translate(4855, 3612) scale(4.430)"/>

<path fill="none" d="M 4838 3612 l 34 0 M 4855 3495 l 0 221 "/>
<use xlink:href="#M1" transform="translate(4888, 4083) scale(4.430)"/>

<path fill="none" d="M 4872 4083 l 32 0 M 4888 3969 l 0 217 "/>
<use xlink:href="#M1" transform="translate(4920, 4324) scale(4.430)"/>

<path fill="none" d="M 4904 4324 l 32 0 M 4920 4211 l 0 215 "/>
<use xlink:href="#M1" transform="translate(4952, 4569) scale(4.430)"/>

<path fill="none" d="M 4936 4569 l 31 0 M 4952 4458 l 0 211 "/>
<use xlink:href="#M1" transform="translate(4982, 4655) scale(4.430)"/>

<path fill="none" d="M 4967 4655 l 30 0 M 4982 4541 l 0 215 "/>
<use xlink:href="#M1" transform="translate(5014, 4873) scale(4.430)"/>

<path fill="none" d="M 4997 4873 l 34 0 M 5014 4767 l 0 201 "/>
<use xlink:href="#M1" transform="translate(5047, 4740) scale(4.430)"/>

<path fill="none" d="M 5031 4740 l 32 0 M 5047 4633 l 0 204 "/>
<use xlink:href="#M1" transform="translate(5079, 4243) scale(4.430)"/>

<path fill="none" d="M 5063 4243 l 32 0 M 5079 4136 l 0 204 "/>
<use xlink:href="#M1" transform="translate(5110, 4100) scale(4.430)"/>

<path fill="none" d="M 5095 4100 l 31 0 M 5110 3986 l 0 215 "/>
<use xlink:href="#M1" transform="translate(5141, 3789) scale(4.430)"/>

<path fill="none" d="M 5126 3789 l 30 0 M 5141 3680 l 0 207 "/>
<use xlink:href="#M1" transform="translate(5172, 3551) scale(4.430)"/>

<path fill="none" d="M 5156 3551 l 33 0 M 5172 3448 l 0 196 "/>
<use xlink:href="#M1" transform="translate(5205, 3338) scale(4.430)"/>

<path fill="none" d="M 5189 3338 l 31 0 M 5205 3230 l 0 205 "/>
<use xlink:href="#M1" transform="translate(5236, 3075) scale(4.430)"/>

<path fill="none" d="M 5220 3075 l 32 0 M 5236 2969 l 0 201 "/>
<use xlink:href="#M1" transform="translate(5267, 2952) scale(4.430)"/>

<path fill="none" d="M 5252 2952 l 30 0 M 5267 2843 l 0 207 "/>
<use xlink:href="#M1" transform="translate(5299, 2961) scale(4.430)"/>

<path fill="none" d="M 5282 2961 l 33 0 M 5299 2858 l 0 196 "/>
<use xlink:href="#M1" transform="translate(5331, 2852) scale(4.430)"/>

<path fill="none" d="M 5315 2852 l 32 0 M 5331 2749 l 0 197 "/>
<use xlink:href="#M1" transform="translate(5362, 2772) scale(4.430)"/>

<path fill="none" d="M 5347 2772 l 31 0 M 5362 2667 l 0 200 "/>
<use xlink:href="#M1" transform="translate(5393, 2673) scale(4.430)"/>

<path fill="none" d="M 5378 2673 l 30 0 M 5393 2567 l 0 203 "/>
<use xlink:href="#M1" transform="translate(5425, 2543) scale(4.430)"/>

<path fill="none" d="M 5408 2543 l 33 0 M 5425 2440 l 0 196 "/>
<use xlink:href="#M1" transform="translate(5457, 2595) scale(4.430)"/>

<path fill="none" d="M 5441 2595 l 31 0 M 5457 2492 l 0 196 "/>
<use xlink:href="#M1" transform="translate(5488, 2463) scale(4.430)"/>

<path fill="none" d="M 5472 2463 l 31 0 M 5488 2359 l 0 198 "/>
<use xlink:href="#M1" transform="translate(5518, 2605) scale(4.430)"/>

<path fill="none" d="M 5503 2605 l 30 0 M 5518 2503 l 0 195 "/>
<use xlink:href="#M1" transform="translate(5549, 2465) scale(4.430)"/>

<path fill="none" d="M 5533 2465 l 32 0 M 5549 2368 l 0 186 "/>
<use xlink:href="#M1" transform="translate(5581, 2309) scale(4.430)"/>

<path fill="none" d="M 5565 2309 l 31 0 M 5581 2208 l 0 192 "/>
<use xlink:href="#M1" transform="translate(5612, 2447) scale(4.430)"/>

<path fill="none" d="M 5596 2447 l 31 0 M 5612 2347 l 0 190 "/>
<use xlink:href="#M1" transform="translate(5643, 2303) scale(4.430)"/>

<path fill="none" d="M 5627 2303 l 32 0 M 5643 2206 l 0 184 "/>
<use xlink:href="#M1" transform="translate(5674, 2277) scale(4.430)"/>

<path fill="none" d="M 5659 2277 l 31 0 M 5674 2180 l 0 185 "/>
<use xlink:href="#M1" transform="translate(5705, 2239) scale(4.430)"/>

<path fill="none" d="M 5690 2239 l 30 0 M 5705 2140 l 0 189 "/>
<use xlink:href="#M1" transform="translate(5736, 2334) scale(4.430)"/>

<path fill="none" d="M 5720 2334 l 32 0 M 5736 2241 l 0 178 "/>
<use xlink:href="#M1" transform="translate(5768, 2371) scale(4.430)"/>

<path fill="none" d="M 5752 2371 l 31 0 M 5768 2276 l 0 182 "/>
<use xlink:href="#M1" transform="translate(5799, 2389) scale(4.430)"/>

<path fill="none" d="M 5783 2389 l 31 0 M 5799 2296 l 0 179 "/>
<use xlink:href="#M1" transform="translate(5830, 2485) scale(4.430)"/>

<path fill="none" d="M 5814 2485 l 32 0 M 5830 2395 l 0 173 "/>
<use xlink:href="#M1" transform="translate(5861, 2463) scale(4.430)"/>

<path fill="none" d="M 5846 2463 l 30 0 M 5861 2374 l 0 170 "/>
<use xlink:href="#M1" transform="translate(5892, 2666) scale(4.430)"/>

<path fill="none" d="M 5876 2666 l 31 0 M 5892 2581 l 0 163 "/>
<use xlink:href="#M1" transform="translate(5922, 2681) scale(4.430)"/>

<path fill="none" d="M 5907 2681 l 31 0 M 5922 2597 l 0 162 "/>
<use xlink:href="#M1" transform="translate(5953, 2564) scale(4.430)"/>

<path fill="none" d="M 5938 2564 l 31 0 M 5953 2477 l 0 166 "/>
<use xlink:href="#M1" transform="translate(5985, 2292) scale(4.430)"/>

<path fill="none" d="M 5969 2292 l 31 0 M 5985 2208 l 0 163 "/>
<use xlink:href="#M1" transform="translate(6016, 2156) scale(4.430)"/>

<path fill="none" d="M 6000 2156 l 31 0 M 6016 2069 l 0 167 "/>
<use xlink:href="#M1" transform="translate(6046, 1939) scale(4.430)"/>

<path fill="none" d="M 6031 1939 l 30 0 M 6046 1850 l 0 171 "/>
<use xlink:href="#M1" transform="translate(6077, 1786) scale(4.430)"/>

<path fill="none" d="M 6061 1786 l 32 0 M 6077 1695 l 0 174 "/>
<use xlink:href="#M1" transform="translate(6108, 1841) scale(4.430)"/>

<path fill="none" d="M 6093 1841 l 30 0 M 6108 1751 l 0 172 "/>
<use xlink:href="#M1" transform="translate(6139, 1828) scale(4.430)"/>

<path fill="none" d="M 6123 1828 l 31 0 M 6139 1741 l 0 168 "/>
<use xlink:href="#M1" transform="translate(6170, 1616) scale(4.430)"/>

<path fill="none" d="M 6154 1616 l 31 0 M 6170 1525 l 0 175 "/>
<use xlink:href="#M1" transform="translate(6201, 1420) scale(4.430)"/>

<path fill="none" d="M 6185 1420 l 31 0 M 6201 1325 l 0 181 "/>
<use xlink:href="#M1" transform="translate(6232, 1301) scale(4.430)"/>

<path fill="none" d="M 6216 1301 l 31 0 M 6232 1204 l 0 186 "/>
<use xlink:href="#M1" transform="translate(6262, 1457) scale(4.430)"/>

<path fill="none" d="M 6247 1457 l 31 0 M 6262 1367 l 0 173 "/>
<use xlink:href="#M1" transform="translate(6293, 1235) scale(4.430)"/>

<path fill="none" d="M 6278 1235 l 31 0 M 6293 1140 l 0 182 "/>
<use xlink:href="#M1" transform="translate(6324, 1324) scale(4.430)"/>

<path fill="none" d="M 6309 1324 l 31 0 M 6324 1232 l 0 176 "/>
<use xlink:href="#M1" transform="translate(6355, 1230) scale(4.430)"/>

<path fill="none" d="M 6340 1230 l 30 0 M 6355 1136 l 0 180 "/>
<use xlink:href="#M1" transform="translate(6386, 1057) scale(4.430)"/>

<path fill="none" d="M 6370 1057 l 31 0 M 6386 959 l 0 188 "/>
<use xlink:href="#M1" transform="translate(6417, 1187) scale(4.430)"/>

<path fill="none" d="M 6401 1187 l 31 0 M 6417 1092 l 0 182 "/>
<use xlink:href="#M1" transform="translate(6447, 1072) scale(4.430)"/>

<path fill="none" d="M 6432 1072 l 31 0 M 6447 976 l 0 184 "/>
<use xlink:href="#M1" transform="translate(6478, 1037) scale(4.430)"/>

<path fill="none" d="M 6463 1037 l 30 0 M 6478 938 l 0 188 "/>
<use xlink:href="#M1" transform="translate(6508, 946) scale(4.430)"/>

<path fill="none" d="M 6493 946 l 30 0 M 6508 847 l 0 189 "/>
<use xlink:href="#M1" transform="translate(6539, 910) scale(4.430)"/>

<path fill="none" d="M 6523 910 l 31 0 M 6539 813 l 0 186 "/>
<use xlink:href="#M1" transform="translate(6570, 755) scale(4.430)"/>

<path fill="none" d="M 6554 755 l 31 0 M 6570 651 l 0 197 "/>
<use xlink:href="#M1" transform="translate(6600, 803) scale(4.430)"/>

<path fill="none" d="M 6585 803 l 31 0 M 6600 701 l 0 194 "/>
<use xlink:href="#M1" transform="translate(6631, 807) scale(4.430)"/>

<path fill="none" d="M 6616 807 l 31 0 M 6631 710 l 0 186 "/>
<use xlink:href="#M1" transform="translate(6662, 680) scale(4.430)"/>

<path fill="none" d="M 6647 680 l 30 0 M 6662 576 l 0 198 "/>
</g>
<g style="color: rgb(0, 0, 0); fill: currentColor; stroke: currentColor; stroke-width: 8">

<path fill="none" d="M 742 3644 l 93 0 l 0 0 l 88 0 l 0 -1 l 81 0 l 0 0 l 77 0 l 0 0 l 73 0 l 0 -1 
l 69 0 l 0 0 l 65 0 l 0 -1 l 63 0 l 0 0 l 59 0 l 0 -1 l 57 0 l 0 0 l 54 0 
l 0 -1 l 53 0 l 0 0 l 50 0 l 0 -1 l 48 0 l 0 0 l 47 0 l 0 -1 l 45 0 l 0 0 
l 44 0 l 0 -1 l 42 0 l 0 -1 l 41 0 l 0 0 l 40 0 l 0 -1 l 38 0 l 0 -1 l 37 0 
l 0 0 l 37 0 l 0 -1 l 35 0 l 0 -1 l 34 0 l 0 -1 l 34 0 l 0 0 l 33 0 l 0 -1 
l 32 0 l 0 -1 l 31 0 l 0 -1 l 60 0 l 0 -2 l 57 0 l 0 -2 l 55 0 l 0 -2 l 53 0 
l 0 -2 l 51 0 l 0 -2 l 49 0 l 0 -2 l 47 0 l 0 -3 l 46 0 l 0 -2 l 44 0 l 0 -3 
l 42 0 l 0 -2 l 41 0 l 0 -3 l 40 0 l 0 -2 l 39 0 l 0 -3 l 38 0 l 0 -3 l 36 0 
l 0 -3 l 36 0 l 0 -3 l 34 0 l 0 -3 l 34 0 l 0 -3 l 33 0 l 0 -3 l 32 0 l 0 -3 
l 32 0 l 0 -3 l 30 0 l 0 -4 l 45 0 l 0 -6 l 43 0 l 0 -5 l 42 0 l 0 -5 l 40 0 
l 0 -6 l 39 0 l 0 -5 l 38 0 l 0 -6 l 37 0 l 0 -6 l 36 0 l 0 -6 l 35 0 l 0 -7 
l 35 0 l 0 -6 l 33 0 l 0 -6 l 32 0 l 0 -7 l 32 0 l 0 -7 l 31 0 l 0 -7 l 40 0 
l 0 -10 l 39 0 l 0 -9 l 38 0 l 0 -10 l 36 0 l 0 -9 l 36 0 l 0 -10 l 35 0 l 0 -10 
l 34 0 l 0 -10 l 33 0 l 0 -11 l 32 0 l 0 -10 l 31 0 l 0 -11 l 31 0 l 0 -12 l 37 0 
l 0 -13 l 37 0 l 0 -13 l 35 0 l 0 -14 l 34 0 l 0 -14 l 34 0 l 0 -14 l 33 0 l 0 -13 
l 32 0 l 0 -14 l 31 0 l 0 -14 l 30 0 l 0 -15 l 36 0 l 0 -16 l 34 0 l 0 -16 l 34 0 
l 0 -16 l 33 0 l 0 -15 l 32 0 l 0 -15 l 31 0 l 0 -14 l 31 0 l 0 -14 l 35 0 l 0 -14 
l 34 0 l 0 -11 l 33 0 l 0 -7 l 32 0 l 0 -4 l 31 0 l 0 4 l 31 0 l 0 14 l 34 0 
l 0 33 l 34 0 l 0 59 l 32 0 l 0 96 l 32 0 l 0 131 l 31 0 l 0 128 l 30 0 l 0 32 
l 34 0 l 0 -125 l 32 0 l 0 -196 l 32 0 l 0 -174 l 31 0 l 0 -133 l 30 0 l 0 -104 l 33 0 
l 0 -84 l 31 0 l 0 -67 l 32 0 l 0 -57 l 30 0 l 0 -51 l 33 0 l 0 -49 l 32 0 l 0 -44 
l 31 0 l 0 -42 l 30 0 l 0 -41 l 33 0 l 0 -41 l 31 0 l 0 -39 l 31 0 l 0 -39 l 30 0 
l 0 -39 l 32 0 l 0 -39 l 31 0 l 0 -38 l 31 0 l 0 -39 l 32 0 l 0 -40 l 31 0 l 0 -39 
l 30 0 l 0 -40 l 32 0 l 0 -40 l 31 0 l 0 -39 l 31 0 l 0 -41 l 32 0 l 0 -40 l 30 0 
l 0 -40 l 31 0 l 0 -41 l 31 0 l 0 -41 l 31 0 l 0 -41 l 31 0 l 0 -42 l 31 0 l 0 -41 
l 30 0 l 0 -41 l 32 0 l 0 -42 l 30 0 l 0 -42 l 31 0 l 0 -43 l 31 0 l 0 -42 l 31 0 
l 0 -43 l 31 0 l 0 -43 l 31 0 l 0 -43 l 31 0 l 0 -44 l 31 0 l 0 -43 l 30 0 l 0 -44 
l 31 0 l 0 -43 l 31 0 l 0 -44 l 31 0 l 0 -43 l 30 0 l 0 -44 l 30 0 l 0 -44 l 31 0 
l 0 -45 l 31 0 l 0 -44 l 31 0 l 0 -45 l 31 0 l 0 -45 l 30 0 M 742 3644 l 93 0 M 789 3644 l 0 0 
M 835 3644 l 88 0 M 880 3644 l 0 0 M 923 3643 l 81 0 M 964 3643 l 0 0 M 1004 3643 l 77 0 M 1043 3643 l 0 0 
M 1081 3643 l 73 0 M 1118 3643 l 0 0 M 1154 3642 l 69 0 M 1189 3642 l 0 0 M 1223 3642 l 65 0 M 1256 3642 l 0 0 
M 1288 3641 l 63 0 M 1320 3641 l 0 0 M 1351 3641 l 59 0 M 1381 3641 l 0 0 M 1410 3640 l 57 0 M 1439 3640 l 0 0 
M 1467 3640 l 54 0 M 1494 3640 l 0 0 M 1521 3639 l 53 0 M 1548 3639 l 0 0 M 1574 3639 l 50 0 M 1599 3639 l 0 0 
M 1624 3638 l 48 0 M 1648 3638 l 0 0 M 1672 3638 l 47 0 M 1696 3638 l 0 0 M 1719 3637 l 45 0 M 1742 3637 l 0 0 
M 1764 3637 l 44 0 M 1786 3637 l 0 0 M 1808 3636 l 42 0 M 1829 3636 l 0 0 M 1850 3635 l 41 0 M 1871 3635 l 0 0 
M 1891 3635 l 40 0 M 1911 3635 l 0 0 M 1931 3634 l 38 0 M 1950 3634 l 0 0 M 1969 3633 l 37 0 M 1988 3633 l 0 0 
M 2006 3633 l 37 0 M 2025 3633 l 0 0 M 2043 3632 l 35 0 M 2061 3632 l 0 0 M 2078 3631 l 34 0 M 2095 3631 l 0 0 
M 2112 3630 l 34 0 M 2129 3630 l 0 0 M 2146 3630 l 33 0 M 2162 3630 l 0 0 M 2179 3629 l 32 0 M 2195 3629 l 0 0 
M 2211 3628 l 31 0 M 2226 3628 l 0 0 M 2242 3627 l 60 0 M 2272 3627 l 0 0 M 2302 3625 l 57 0 M 2331 3625 l 0 0 
M 2359 3623 l 55 0 M 2387 3623 l 0 0 M 2414 3621 l 53 0 M 2441 3621 l 0 0 M 2467 3619 l 51 0 M 2493 3619 l 0 0 
M 2518 3617 l 49 0 M 2543 3617 l 0 0 M 2567 3615 l 47 0 M 2591 3615 l 0 0 M 2614 3612 l 46 0 M 2637 3612 l 0 0 
M 2660 3610 l 44 0 M 2682 3610 l 0 0 M 2704 3607 l 42 0 M 2725 3607 l 0 0 M 2746 3605 l 41 0 M 2767 3605 l 0 0 
M 2787 3602 l 40 0 M 2807 3602 l 0 0 M 2827 3600 l 39 0 M 2847 3600 l 0 0 M 2866 3597 l 38 0 M 2885 3597 l 0 0 
M 2904 3594 l 36 0 M 2922 3594 l 0 0 M 2940 3591 l 36 0 M 2958 3591 l 0 0 M 2976 3588 l 34 0 M 2993 3588 l 0 0 
M 3010 3585 l 34 0 M 3027 3585 l 0 0 M 3044 3582 l 33 0 M 3061 3582 l 0 0 M 3077 3579 l 32 0 M 3093 3579 l 0 0 
M 3109 3576 l 32 0 M 3125 3576 l 0 0 M 3141 3573 l 30 0 M 3156 3573 l 0 0 M 3171 3569 l 45 0 M 3194 3569 l 0 0 
M 3216 3563 l 43 0 M 3237 3563 l 0 0 M 3259 3558 l 42 0 M 3280 3558 l 0 0 M 3301 3553 l 40 0 M 3321 3553 l 0 0 
M 3341 3547 l 39 0 M 3361 3547 l 0 0 M 3380 3542 l 38 0 M 3399 3542 l 0 0 M 3418 3536 l 37 0 M 3437 3536 l 0 0 
M 3455 3530 l 36 0 M 3474 3530 l 0 0 M 3491 3524 l 35 0 M 3509 3524 l 0 0 M 3526 3517 l 35 0 M 3544 3517 l 0 0 
M 3561 3511 l 33 0 M 3577 3511 l 0 0 M 3594 3505 l 32 0 M 3610 3505 l 0 0 M 3626 3498 l 32 0 M 3642 3498 l 0 0 
M 3658 3491 l 31 0 M 3673 3491 l 0 0 M 3689 3484 l 40 0 M 3709 3484 l 0 0 M 3729 3474 l 39 0 M 3748 3474 l 0 0 
M 3768 3465 l 38 0 M 3787 3465 l 0 0 M 3806 3455 l 36 0 M 3824 3455 l 0 0 M 3842 3446 l 36 0 M 3860 3446 l 0 0 
M 3878 3436 l 35 0 M 3895 3436 l 0 0 M 3913 3426 l 34 0 M 3930 3426 l 0 0 M 3947 3416 l 33 0 M 3963 3416 l 0 0 
M 3980 3405 l 32 0 M 3996 3405 l 0 0 M 4012 3395 l 31 0 M 4028 3395 l 0 0 M 4043 3384 l 31 0 M 4059 3384 l 0 0 
M 4074 3372 l 37 0 M 4093 3372 l 0 0 M 4111 3359 l 37 0 M 4130 3359 l 0 0 M 4148 3346 l 35 0 M 4165 3346 l 0 0 
M 4183 3332 l 34 0 M 4200 3332 l 0 0 M 4217 3318 l 34 0 M 4234 3318 l 0 0 M 4251 3304 l 33 0 M 4267 3304 l 0 0 
M 4284 3291 l 32 0 M 4300 3291 l 0 0 M 4316 3277 l 31 0 M 4331 3277 l 0 0 M 4347 3263 l 30 0 M 4362 3263 l 0 0 
M 4377 3248 l 36 0 M 4395 3248 l 0 0 M 4413 3232 l 34 0 M 4430 3232 l 0 0 M 4447 3216 l 34 0 M 4464 3216 l 0 0 
M 4481 3200 l 33 0 M 4498 3200 l 0 0 M 4514 3185 l 32 0 M 4530 3185 l 0 0 M 4546 3170 l 31 0 M 4562 3170 l 0 0 
M 4577 3156 l 31 0 M 4593 3156 l 0 0 M 4608 3142 l 35 0 M 4625 3142 l 0 0 M 4643 3128 l 34 0 M 4660 3128 l 0 0 
M 4677 3117 l 33 0 M 4693 3117 l 0 0 M 4710 3110 l 32 0 M 4726 3110 l 0 0 M 4742 3106 l 31 0 M 4758 3106 l 0 0 
M 4773 3110 l 31 0 M 4789 3110 l 0 0 M 4804 3124 l 34 0 M 4821 3124 l 0 0 M 4838 3157 l 34 0 M 4855 3157 l 0 0 
M 4872 3216 l 32 0 M 4888 3216 l 0 0 M 4904 3312 l 32 0 M 4920 3312 l 0 0 M 4936 3443 l 31 0 M 4952 3443 l 0 0 
M 4967 3571 l 30 0 M 4982 3571 l 0 0 M 4997 3603 l 34 0 M 5014 3603 l 0 0 M 5031 3478 l 32 0 M 5047 3478 l 0 0 
M 5063 3282 l 32 0 M 5079 3282 l 0 0 M 5095 3108 l 31 0 M 5110 3108 l 0 0 M 5126 2975 l 30 0 M 5141 2975 l 0 0 
M 5156 2871 l 33 0 M 5172 2871 l 0 0 M 5189 2787 l 31 0 M 5205 2787 l 0 0 M 5220 2720 l 32 0 M 5236 2720 l 0 0 
M 5252 2663 l 30 0 M 5267 2663 l 0 0 M 5282 2612 l 33 0 M 5299 2612 l 0 0 M 5315 2563 l 32 0 M 5331 2563 l 0 0 
M 5347 2519 l 31 0 M 5362 2519 l 0 0 M 5378 2477 l 30 0 M 5393 2477 l 0 0 M 5408 2436 l 33 0 M 5425 2436 l 0 0 
M 5441 2395 l 31 0 M 5457 2395 l 0 0 M 5472 2356 l 31 0 M 5488 2356 l 0 0 M 5503 2317 l 30 0 M 5518 2317 l 0 0 
M 5533 2278 l 32 0 M 5549 2278 l 0 0 M 5565 2239 l 31 0 M 5581 2239 l 0 0 M 5596 2201 l 31 0 M 5612 2201 l 0 0 
M 5627 2162 l 32 0 M 5643 2162 l 0 0 M 5659 2122 l 31 0 M 5674 2122 l 0 0 M 5690 2083 l 30 0 M 5705 2083 l 0 0 
M 5720 2043 l 32 0 M 5736 2043 l 0 0 M 5752 2003 l 31 0 M 5768 2003 l 0 0 M 5783 1964 l 31 0 M 5799 1964 l 0 0 
M 5814 1923 l 32 0 M 5830 1923 l 0 0 M 5846 1883 l 30 0 M 5861 1883 l 0 0 M 5876 1843 l 31 0 M 5892 1843 l 0 0 
M 5907 1802 l 31 0 M 5922 1802 l 0 0 M 5938 1761 l 31 0 M 5953 1761 l 0 0 M 5969 1720 l 31 0 M 5985 1720 l 0 0 
M 6000 1678 l 31 0 M 6016 1678 l 0 0 M 6031 1637 l 30 0 M 6046 1637 l 0 0 M 6061 1596 l 32 0 M 6077 1596 l 0 0 
M 6093 1554 l 30 0 M 6108 1554 l 0 0 M 6123 1512 l 31 0 M 6139 1512 l 0 0 M 6154 1469 l 31 0 M 6170 1469 l 0 0 
M 6185 1427 l 31 0 M 6201 1427 l 0 0 M 6216 1384 l 31 0 M 6232 1384 l 0 0 M 6247 1341 l 31 0 M 6262 1341 l 0 0 
M 6278 1298 l 31 0 M 6293 1298 l 0 0 M 6309 1254 l 31 0 M 6324 1254 l 0 0 M 6340 1211 l 30 0 M 6355 1211 l 0 0 
M 6370 1167 l 31 0 M 6386 1167 l 0 0 M 6401 1124 l 31 0 M 6417 1124 l 0 0 M 6432 1080 l 31 0 M 6447 1080 l 0 0 
M 6463 1037 l 30 0 M 6478 1037 l 0 0 M 6493 993 l 30 0 M 6508 993 l 0 0 M 6523 949 l 31 0 M 6539 949 l 0 0 
M 6554 904 l 31 0 M 6570 904 l 0 0 M 6585 860 l 31 0 M 6600 860 l 0 0 M 6616 815 l 31 0 M 6631 815 l 0 0 
M 6647 770 l 30 0 M 6662 770 l 0 0 "/>
<text transform='translate(370,2317) scale(1,-1) rotate(-90)'><tspan class='fn' style='font-size: 886%;'  >counts&#x00A0;s<tspan style='font-size: 60%;'  dy='-0.6em'>&#x2212;1<tspan style='font-size: 166.667%;'  dy='+0.36em'>&#x00A0;keV<tspan style='font-size: 60%;'  dy='-0.6em'>&#x2212;1<tspan style='font-size: 166.667%;'  dy='+0.36em'></tspan></tspan></tspan></tspan></tspan></text>
<text transform='translate(3255,215) scale(1,-1)'><tspan class='fn' style='font-size: 886%;'  >Energy&#x00A0;(keV)</tspan></text>
<text transform='translate(2841,5442) scale(1,-1)'><tspan class='fn' style='font-size: 886%;'  ><tspan class='fR'  >data&#x00A0;and&#x00A0;folded&#x00A0;model</tspan></tspan></text>
</g>
<g style="color: rgb(0, 0, 0); fill: currentColor; stroke: currentColor; stroke-width: 4">
<text transform='translate(6534,46) scale(1,-1)'><tspan class='fn' style='font-size: 531.6%;'  >&#x00A0;10&#x2212;Oct&#x2212;2022&#x00A0;07:52</tspan></text>
</g>
<!-- _PGPLOT_SVG_ATEND: viewbox="          225.691727            45.374001          7369.065430          5600.615723" -->
</svg>
