<svg xmlns="http://www.w3.org/2000/svg" xmlns:xlink="http://www.w3.org/1999/xlink" 
style="fill-rule: nonzero; stroke-linecap: round; stroke-linejoin: round; transform: scale(1,-1);" 
version="1.1" 
viewbox="          -71.657761           -88.998741          6884.404785          5166.998535" 
width="100%" height="100%" preserveAspectRatio="xMidYMid" 
>
<style>
  .fn { font-family: Arial,Helvetica,sans-serif; }
  .fN { font-family: Arial,Helvetica,sans-serif; font-weight: bold;}
  .fr { font-family: Times,Times-Roman,Times New Roman,serif; }
  .fR { font-family: Times,Times-Roman,Times New Roman,serif; font-weight: bold;}
  .fi { font-family: Times,Times-Roman,Times New Roman,serif; font-style: italic;}
  .fI { font-family: Times,Times-Roman,Times New Roman,serif; font-style: italic; font-weight: bold;}
  .fs { font-family: Zapf-Chancery,Apple Chancery,URW Chancery L,cursive;}
  .fS { font-family: Zapf-Chancery,Apple Chancery,URW Chancery L,cursive;font-weight:bold}
  .fc { font-family: Arial Narrow,Helvetica Narrow,Arial,Helvetica,sans-serif;}
  .fC { font-family: Arial Narrow,Helvetica Narrow,Arial,Helvetica,sans-serif; font-weight:bold;}
</style>
<g style="color: rgb(0, 0, 0); fill: currentColor; stroke: currentColor; stroke-width: 8">

<path fill="none" d="M 890 691 l 5639 0 l 0 4377 l -5639 0 l 0 -4377 l 0 133 M 1739 691 l 0 67 M 2235 691 l 0 67 M 2588 691 l 0 67 
M 2861 691 l 0 67 M 3084 691 l 0 67 M 3273 691 l 0 67 M 3436 691 l 0 67 M 3580 691 l 0 67 M 3710 691 l 0 133 
M 4558 691 l 0 67 M 5055 691 l 0 67 M 5407 691 l 0 67 M 5680 691 l 0 67 M 5903 691 l 0 67 M 6092 691 l 0 67 
M 6256 691 l 0 67 M 6400 691 l 0 67 M 6529 691 l 0 133 M 890 4935 l 0 133 M 1739 5001 l 0 67 M 2235 5001 l 0 67 
M 2588 5001 l 0 67 M 2861 5001 l 0 67 M 3084 5001 l 0 67 M 3273 5001 l 0 67 M 3436 5001 l 0 67 M 3580 5001 l 0 67 
M 3710 4935 l 0 133 M 4558 5001 l 0 67 M 5055 5001 l 0 67 M 5407 5001 l 0 67 M 5680 5001 l 0 67 M 5903 5001 l 0 67 
M 6092 5001 l 0 67 M 6256 5001 l 0 67 M 6400 5001 l 0 67 M 6529 4935 l 0 133 "/>
<text transform='translate(667,345) scale(1,-1)'><tspan class='fr' style='font-size: 1772%;'  >0.1</tspan></text>
<text transform='translate(3620,345) scale(1,-1)'><tspan class='fr' style='font-size: 1772%;'  >1</tspan></text>
<text transform='translate(6351,345) scale(1,-1)'><tspan class='fr' style='font-size: 1772%;'  >10</tspan></text>

<path fill="none" d="M 890 691 l 133 0 M 890 1264 l 67 0 M 890 1599 l 67 0 M 890 1836 l 67 0 M 890 2021 l 67 0 M 890 2171 l 67 0 
M 890 2299 l 67 0 M 890 2409 l 67 0 M 890 2506 l 67 0 M 890 2593 l 133 0 M 890 3166 l 67 0 M 890 3501 l 67 0 
M 890 3738 l 67 0 M 890 3923 l 67 0 M 890 4073 l 67 0 M 890 4201 l 67 0 M 890 4311 l 67 0 M 890 4408 l 67 0 
M 890 4495 l 133 0 M 890 5068 l 67 0 M 6396 691 l 133 0 M 6462 1264 l 67 0 M 6462 1599 l 67 0 M 6462 1836 l 67 0 
M 6462 2021 l 67 0 M 6462 2171 l 67 0 M 6462 2299 l 67 0 M 6462 2409 l 67 0 M 6462 2506 l 67 0 M 6396 2593 l 133 0 
M 6462 3166 l 67 0 M 6462 3501 l 67 0 M 6462 3738 l 67 0 M 6462 3923 l 67 0 M 6462 4073 l 67 0 M 6462 4201 l 67 0 
M 6462 4311 l 67 0 M 6462 4408 l 67 0 M 6396 4495 l 133 0 M 6462 5068 l 67 0 "/>
<text transform='translate(688,602) scale(1,-1) rotate(-90)'><tspan class='fr' style='font-size: 1772%;'  >1</tspan></text>
<text transform='translate(688,2415) scale(1,-1) rotate(-90)'><tspan class='fr' style='font-size: 1772%;'  >10</tspan></text>
<text transform='translate(688,4229) scale(1,-1) rotate(-90)'><tspan class='fr' style='font-size: 1772%;'  >100</tspan></text>
</g>
<g style="color: rgb(0, 0, 0); fill: currentColor; stroke: currentColor; stroke-width: 4">
<defs>
<symbol id="M1" overflow="visible">
<circle r="1" fill="none" stroke-width="1"/>
</symbol>
</defs>
<use xlink:href="#M1" transform="translate(1000, 3507) scale(4.430)"/>

<path fill="none" d="M 955 3507 l 88 0 M 1000 3082 l 0 704 "/>
<use xlink:href="#M1" transform="translate(1084, 3671) scale(4.430)"/>

<path fill="none" d="M 1043 3671 l 82 0 M 1084 3252 l 0 696 "/>
<use xlink:href="#M1" transform="translate(1163, 4096) scale(4.430)"/>

<path fill="none" d="M 1125 4096 l 76 0 M 1163 3688 l 0 680 "/>
<use xlink:href="#M1" transform="translate(1238, 4286) scale(4.430)"/>

<path fill="none" d="M 1201 4286 l 72 0 M 1238 3882 l 0 675 "/>
<use xlink:href="#M1" transform="translate(1308, 4427) scale(4.430)"/>

<path fill="none" d="M 1273 4427 l 68 0 M 1308 4025 l 0 672 "/>
<use xlink:href="#M1" transform="translate(1374, 3305) scale(4.430)"/>

<path fill="none" d="M 1341 3305 l 65 0 M 1374 2872 l 0 716 "/>
<use xlink:href="#M1" transform="translate(1437, 3543) scale(4.430)"/>

<path fill="none" d="M 1406 3543 l 61 0 M 1437 3119 l 0 702 "/>
<use xlink:href="#M1" transform="translate(1496, 4254) scale(4.430)"/>

<path fill="none" d="M 1467 4254 l 58 0 M 1496 3849 l 0 676 "/>
<use xlink:href="#M1" transform="translate(1553, 4269) scale(4.430)"/>

<path fill="none" d="M 1525 4269 l 56 0 M 1553 3864 l 0 676 "/>
<use xlink:href="#M1" transform="translate(1608, 3589) scale(4.430)"/>

<path fill="none" d="M 1581 3589 l 53 0 M 1608 3168 l 0 699 "/>
<use xlink:href="#M1" transform="translate(1660, 3942) scale(4.430)"/>

<path fill="none" d="M 1634 3942 l 51 0 M 1660 3531 l 0 684 "/>
<use xlink:href="#M1" transform="translate(1710, 3845) scale(4.430)"/>

<path fill="none" d="M 1685 3845 l 49 0 M 1710 3431 l 0 688 "/>
<use xlink:href="#M1" transform="translate(1758, 3753) scale(4.430)"/>

<path fill="none" d="M 1734 3753 l 47 0 M 1758 3337 l 0 692 "/>
<use xlink:href="#M1" transform="translate(1804, 3352) scale(4.430)"/>

<path fill="none" d="M 1781 3352 l 46 0 M 1804 2920 l 0 714 "/>
<use xlink:href="#M1" transform="translate(1849, 3984) scale(4.430)"/>

<path fill="none" d="M 1827 3984 l 43 0 M 1849 3574 l 0 683 "/>
<use xlink:href="#M1" transform="translate(1892, 3676) scale(4.430)"/>

<path fill="none" d="M 1870 3676 l 43 0 M 1892 3257 l 0 695 "/>
<use xlink:href="#M1" transform="translate(1933, 4371) scale(4.430)"/>

<path fill="none" d="M 1913 4371 l 40 0 M 1933 3968 l 0 673 "/>
<use xlink:href="#M1" transform="translate(1973, 3926) scale(4.430)"/>

<path fill="none" d="M 1953 3926 l 40 0 M 1973 3514 l 0 685 "/>
<use xlink:href="#M1" transform="translate(2012, 4047) scale(4.430)"/>

<path fill="none" d="M 1993 4047 l 38 0 M 2012 3638 l 0 681 "/>
<use xlink:href="#M1" transform="translate(2050, 4132) scale(4.430)"/>

<path fill="none" d="M 2031 4132 l 37 0 M 2050 3725 l 0 678 "/>
<use xlink:href="#M1" transform="translate(2086, 4122) scale(4.430)"/>

<path fill="none" d="M 2068 4122 l 36 0 M 2086 3714 l 0 679 "/>
<use xlink:href="#M1" transform="translate(2122, 4142) scale(4.430)"/>

<path fill="none" d="M 2104 4142 l 35 0 M 2122 3735 l 0 678 "/>
<use xlink:href="#M1" transform="translate(2156, 3847) scale(4.430)"/>

<path fill="none" d="M 2139 3847 l 34 0 M 2156 3434 l 0 687 "/>
<use xlink:href="#M1" transform="translate(2190, 3565) scale(4.430)"/>

<path fill="none" d="M 2173 3565 l 33 0 M 2190 3142 l 0 701 "/>
<use xlink:href="#M1" transform="translate(2223, 4127) scale(4.430)"/>

<path fill="none" d="M 2206 4127 l 33 0 M 2223 3719 l 0 679 "/>
<use xlink:href="#M1" transform="translate(2254, 4299) scale(4.430)"/>

<path fill="none" d="M 2239 4299 l 31 0 M 2254 3894 l 0 675 "/>
<use xlink:href="#M1" transform="translate(2285, 3877) scale(4.430)"/>

<path fill="none" d="M 2270 3877 l 31 0 M 2285 3465 l 0 686 "/>
<use xlink:href="#M1" transform="translate(2316, 3522) scale(4.430)"/>

<path fill="none" d="M 2301 3522 l 29 0 M 2316 3098 l 0 703 "/>
<use xlink:href="#M1" transform="translate(2345, 3700) scale(4.430)"/>

<path fill="none" d="M 2330 3700 l 30 0 M 2345 3283 l 0 694 "/>
<use xlink:href="#M1" transform="translate(2388, 3928) scale(4.430)"/>

<path fill="none" d="M 2360 3928 l 56 0 M 2388 3640 l 0 501 "/>
<use xlink:href="#M1" transform="translate(2443, 3584) scale(4.430)"/>

<path fill="none" d="M 2416 3584 l 54 0 M 2443 3308 l 0 482 "/>
<use xlink:href="#M1" transform="translate(2496, 4080) scale(4.430)"/>

<path fill="none" d="M 2470 4080 l 51 0 M 2496 3796 l 0 496 "/>
<use xlink:href="#M1" transform="translate(2546, 4225) scale(4.430)"/>

<path fill="none" d="M 2521 4225 l 50 0 M 2546 3957 l 0 471 "/>
<use xlink:href="#M1" transform="translate(2595, 3762) scale(4.430)"/>

<path fill="none" d="M 2571 3762 l 47 0 M 2595 3491 l 0 476 "/>
<use xlink:href="#M1" transform="translate(2641, 3563) scale(4.430)"/>

<path fill="none" d="M 2618 3563 l 46 0 M 2641 3285 l 0 485 "/>
<use xlink:href="#M1" transform="translate(2686, 4002) scale(4.430)"/>

<path fill="none" d="M 2664 4002 l 44 0 M 2686 3674 l 0 563 "/>
<use xlink:href="#M1" transform="translate(2730, 3717) scale(4.430)"/>

<path fill="none" d="M 2708 3717 l 43 0 M 2730 3437 l 0 489 "/>
<use xlink:href="#M1" transform="translate(2772, 3880) scale(4.430)"/>

<path fill="none" d="M 2751 3880 l 41 0 M 2772 3608 l 0 476 "/>
<use xlink:href="#M1" transform="translate(2812, 3663) scale(4.430)"/>

<path fill="none" d="M 2792 3663 l 40 0 M 2812 3375 l 0 501 "/>
<use xlink:href="#M1" transform="translate(2851, 4020) scale(4.430)"/>

<path fill="none" d="M 2832 4020 l 38 0 M 2851 3751 l 0 472 "/>
<use xlink:href="#M1" transform="translate(2889, 3858) scale(4.430)"/>

<path fill="none" d="M 2870 3858 l 38 0 M 2889 3581 l 0 484 "/>
<use xlink:href="#M1" transform="translate(2926, 3673) scale(4.430)"/>

<path fill="none" d="M 2908 3673 l 36 0 M 2926 3401 l 0 477 "/>
<use xlink:href="#M1" transform="translate(2962, 3769) scale(4.430)"/>

<path fill="none" d="M 2944 3769 l 35 0 M 2962 3497 l 0 476 "/>
<use xlink:href="#M1" transform="translate(2997, 3602) scale(4.430)"/>

<path fill="none" d="M 2979 3602 l 35 0 M 2997 3327 l 0 480 "/>
<use xlink:href="#M1" transform="translate(3030, 3398) scale(4.430)"/>

<path fill="none" d="M 3014 3398 l 33 0 M 3030 3114 l 0 494 "/>
<use xlink:href="#M1" transform="translate(3063, 3436) scale(4.430)"/>

<path fill="none" d="M 3047 3436 l 32 0 M 3063 3119 l 0 546 "/>
<use xlink:href="#M1" transform="translate(3095, 3592) scale(4.430)"/>

<path fill="none" d="M 3079 3592 l 32 0 M 3095 3315 l 0 484 "/>
<use xlink:href="#M1" transform="translate(3126, 3692) scale(4.430)"/>

<path fill="none" d="M 3111 3692 l 31 0 M 3126 3410 l 0 492 "/>
<use xlink:href="#M1" transform="translate(3157, 3595) scale(4.430)"/>

<path fill="none" d="M 3142 3595 l 30 0 M 3157 3311 l 0 494 "/>
<use xlink:href="#M1" transform="translate(3186, 3969) scale(4.430)"/>

<path fill="none" d="M 3172 3969 l 29 0 M 3186 3700 l 0 471 "/>
<use xlink:href="#M1" transform="translate(3215, 3087) scale(4.430)"/>

<path fill="none" d="M 3201 3087 l 29 0 M 3215 2786 l 0 521 "/>
<use xlink:href="#M1" transform="translate(3251, 3520) scale(4.430)"/>

<path fill="none" d="M 3230 3520 l 41 0 M 3251 3301 l 0 392 "/>
<use xlink:href="#M1" transform="translate(3292, 3524) scale(4.430)"/>

<path fill="none" d="M 3271 3524 l 41 0 M 3292 3305 l 0 391 "/>
<use xlink:href="#M1" transform="translate(3331, 3614) scale(4.430)"/>

<path fill="none" d="M 3312 3614 l 39 0 M 3331 3381 l 0 415 "/>
<use xlink:href="#M1" transform="translate(3370, 3664) scale(4.430)"/>

<path fill="none" d="M 3351 3664 l 38 0 M 3370 3446 l 0 391 "/>
<use xlink:href="#M1" transform="translate(3407, 2770) scale(4.430)"/>

<path fill="none" d="M 3389 2770 l 36 0 M 3407 2484 l 0 498 "/>
<use xlink:href="#M1" transform="translate(3443, 3604) scale(4.430)"/>

<path fill="none" d="M 3425 3604 l 36 0 M 3443 3382 l 0 396 "/>
<use xlink:href="#M1" transform="translate(3479, 3270) scale(4.430)"/>

<path fill="none" d="M 3461 3270 l 35 0 M 3479 3043 l 0 406 "/>
<use xlink:href="#M1" transform="translate(3513, 3272) scale(4.430)"/>

<path fill="none" d="M 3496 3272 l 33 0 M 3513 3049 l 0 399 "/>
<use xlink:href="#M1" transform="translate(3546, 3469) scale(4.430)"/>

<path fill="none" d="M 3529 3469 l 33 0 M 3546 3243 l 0 403 "/>
<use xlink:href="#M1" transform="translate(3578, 3237) scale(4.430)"/>

<path fill="none" d="M 3562 3237 l 32 0 M 3578 2990 l 0 438 "/>
<use xlink:href="#M1" transform="translate(3610, 3329) scale(4.430)"/>

<path fill="none" d="M 3594 3329 l 31 0 M 3610 3103 l 0 403 "/>
<use xlink:href="#M1" transform="translate(3641, 3016) scale(4.430)"/>

<path fill="none" d="M 3625 3016 l 31 0 M 3641 2785 l 0 412 "/>
<use xlink:href="#M1" transform="translate(3671, 3083) scale(4.430)"/>

<path fill="none" d="M 3656 3083 l 29 0 M 3671 2843 l 0 425 "/>
<use xlink:href="#M1" transform="translate(3700, 3147) scale(4.430)"/>

<path fill="none" d="M 3685 3147 l 29 0 M 3700 2915 l 0 413 "/>
<use xlink:href="#M1" transform="translate(3733, 3493) scale(4.430)"/>

<path fill="none" d="M 3714 3493 l 38 0 M 3733 3301 l 0 348 "/>
<use xlink:href="#M1" transform="translate(3770, 3443) scale(4.430)"/>

<path fill="none" d="M 3752 3443 l 36 0 M 3770 3256 l 0 339 "/>
<use xlink:href="#M1" transform="translate(3806, 3254) scale(4.430)"/>

<path fill="none" d="M 3788 3254 l 36 0 M 3806 3052 l 0 364 "/>
<use xlink:href="#M1" transform="translate(3841, 3494) scale(4.430)"/>

<path fill="none" d="M 3824 3494 l 34 0 M 3841 3293 l 0 363 "/>
<use xlink:href="#M1" transform="translate(3875, 3245) scale(4.430)"/>

<path fill="none" d="M 3858 3245 l 33 0 M 3875 3048 l 0 355 "/>
<use xlink:href="#M1" transform="translate(3908, 3130) scale(4.430)"/>

<path fill="none" d="M 3891 3130 l 33 0 M 3908 2935 l 0 352 "/>
<use xlink:href="#M1" transform="translate(3940, 3273) scale(4.430)"/>

<path fill="none" d="M 3924 3273 l 32 0 M 3940 3074 l 0 359 "/>
<use xlink:href="#M1" transform="translate(3971, 3491) scale(4.430)"/>

<path fill="none" d="M 3956 3491 l 31 0 M 3971 3296 l 0 352 "/>
<use xlink:href="#M1" transform="translate(4002, 3480) scale(4.430)"/>

<path fill="none" d="M 3987 3480 l 30 0 M 4002 3273 l 0 372 "/>
<use xlink:href="#M1" transform="translate(4031, 3372) scale(4.430)"/>

<path fill="none" d="M 4017 3372 l 29 0 M 4031 3171 l 0 363 "/>
<use xlink:href="#M1" transform="translate(4061, 3426) scale(4.430)"/>

<path fill="none" d="M 4046 3426 l 29 0 M 4061 3219 l 0 372 "/>
<use xlink:href="#M1" transform="translate(4092, 3148) scale(4.430)"/>

<path fill="none" d="M 4075 3148 l 35 0 M 4092 2946 l 0 365 "/>
<use xlink:href="#M1" transform="translate(4127, 3184) scale(4.430)"/>

<path fill="none" d="M 4110 3184 l 34 0 M 4127 3001 l 0 332 "/>
<use xlink:href="#M1" transform="translate(4160, 3436) scale(4.430)"/>

<path fill="none" d="M 4144 3436 l 33 0 M 4160 3251 l 0 336 "/>
<use xlink:href="#M1" transform="translate(4193, 3182) scale(4.430)"/>

<path fill="none" d="M 4177 3182 l 32 0 M 4193 2999 l 0 333 "/>
<use xlink:href="#M1" transform="translate(4225, 3344) scale(4.430)"/>

<path fill="none" d="M 4209 3344 l 32 0 M 4225 3173 l 0 313 "/>
<use xlink:href="#M1" transform="translate(4256, 3037) scale(4.430)"/>

<path fill="none" d="M 4241 3037 l 30 0 M 4256 2858 l 0 326 "/>
<use xlink:href="#M1" transform="translate(4286, 3164) scale(4.430)"/>

<path fill="none" d="M 4271 3164 l 30 0 M 4286 2990 l 0 317 "/>
<use xlink:href="#M1" transform="translate(4316, 3058) scale(4.430)"/>

<path fill="none" d="M 4301 3058 l 29 0 M 4316 2879 l 0 326 "/>
<use xlink:href="#M1" transform="translate(4344, 3040) scale(4.430)"/>

<path fill="none" d="M 4330 3040 l 29 0 M 4344 2863 l 0 322 "/>
<use xlink:href="#M1" transform="translate(4375, 3255) scale(4.430)"/>

<path fill="none" d="M 4359 3255 l 33 0 M 4375 3092 l 0 299 "/>
<use xlink:href="#M1" transform="translate(4408, 3040) scale(4.430)"/>

<path fill="none" d="M 4392 3040 l 32 0 M 4408 2872 l 0 307 "/>
<use xlink:href="#M1" transform="translate(4440, 3109) scale(4.430)"/>

<path fill="none" d="M 4424 3109 l 32 0 M 4440 2950 l 0 292 "/>
<use xlink:href="#M1" transform="translate(4471, 3211) scale(4.430)"/>

<path fill="none" d="M 4456 3211 l 31 0 M 4471 3052 l 0 291 "/>
<use xlink:href="#M1" transform="translate(4502, 3167) scale(4.430)"/>

<path fill="none" d="M 4487 3167 l 30 0 M 4502 2992 l 0 320 "/>
<use xlink:href="#M1" transform="translate(4532, 3027) scale(4.430)"/>

<path fill="none" d="M 4517 3027 l 29 0 M 4532 2866 l 0 295 "/>
<use xlink:href="#M1" transform="translate(4561, 2936) scale(4.430)"/>

<path fill="none" d="M 4546 2936 l 29 0 M 4561 2777 l 0 292 "/>
<use xlink:href="#M1" transform="translate(4591, 2880) scale(4.430)"/>

<path fill="none" d="M 4575 2880 l 32 0 M 4591 2712 l 0 308 "/>
<use xlink:href="#M1" transform="translate(4623, 2975) scale(4.430)"/>

<path fill="none" d="M 4607 2975 l 32 0 M 4623 2821 l 0 284 "/>
<use xlink:href="#M1" transform="translate(4655, 2927) scale(4.430)"/>

<path fill="none" d="M 4639 2927 l 31 0 M 4655 2776 l 0 278 "/>
<use xlink:href="#M1" transform="translate(4685, 2881) scale(4.430)"/>

<path fill="none" d="M 4670 2881 l 30 0 M 4685 2724 l 0 289 "/>
<use xlink:href="#M1" transform="translate(4715, 2564) scale(4.430)"/>

<path fill="none" d="M 4700 2564 l 30 0 M 4715 2402 l 0 297 "/>
<use xlink:href="#M1" transform="translate(4744, 2624) scale(4.430)"/>

<path fill="none" d="M 4730 2624 l 28 0 M 4744 2461 l 0 300 "/>
<use xlink:href="#M1" transform="translate(4775, 2873) scale(4.430)"/>

<path fill="none" d="M 4758 2873 l 33 0 M 4775 2728 l 0 268 "/>
<use xlink:href="#M1" transform="translate(4806, 2640) scale(4.430)"/>

<path fill="none" d="M 4791 2640 l 31 0 M 4806 2486 l 0 284 "/>
<use xlink:href="#M1" transform="translate(4837, 2398) scale(4.430)"/>

<path fill="none" d="M 4822 2398 l 30 0 M 4837 2243 l 0 285 "/>
<use xlink:href="#M1" transform="translate(4867, 2542) scale(4.430)"/>

<path fill="none" d="M 4852 2542 l 30 0 M 4867 2394 l 0 273 "/>
<use xlink:href="#M1" transform="translate(4897, 2490) scale(4.430)"/>

<path fill="none" d="M 4882 2490 l 29 0 M 4897 2333 l 0 288 "/>
<use xlink:href="#M1" transform="translate(4925, 2515) scale(4.430)"/>

<path fill="none" d="M 4911 2515 l 28 0 M 4925 2360 l 0 286 "/>
<use xlink:href="#M1" transform="translate(4955, 2410) scale(4.430)"/>

<path fill="none" d="M 4939 2410 l 31 0 M 4955 2267 l 0 266 "/>
<use xlink:href="#M1" transform="translate(4986, 2223) scale(4.430)"/>

<path fill="none" d="M 4970 2223 l 31 0 M 4986 2072 l 0 279 "/>
<use xlink:href="#M1" transform="translate(5016, 2403) scale(4.430)"/>

<path fill="none" d="M 5001 2403 l 29 0 M 5016 2255 l 0 273 "/>
<use xlink:href="#M1" transform="translate(5045, 2499) scale(4.430)"/>

<path fill="none" d="M 5030 2499 l 29 0 M 5045 2357 l 0 263 "/>
<use xlink:href="#M1" transform="translate(5074, 2365) scale(4.430)"/>

<path fill="none" d="M 5059 2365 l 29 0 M 5074 2217 l 0 273 "/>
<use xlink:href="#M1" transform="translate(5103, 2347) scale(4.430)"/>

<path fill="none" d="M 5088 2347 l 30 0 M 5103 2202 l 0 268 "/>
<use xlink:href="#M1" transform="translate(5133, 2243) scale(4.430)"/>

<path fill="none" d="M 5118 2243 l 30 0 M 5133 2100 l 0 265 "/>
<use xlink:href="#M1" transform="translate(5163, 2228) scale(4.430)"/>

<path fill="none" d="M 5148 2228 l 29 0 M 5163 2080 l 0 274 "/>
<use xlink:href="#M1" transform="translate(5192, 2402) scale(4.430)"/>

<path fill="none" d="M 5177 2402 l 29 0 M 5192 2260 l 0 264 "/>
<use xlink:href="#M1" transform="translate(5221, 2707) scale(4.430)"/>

<path fill="none" d="M 5206 2707 l 30 0 M 5221 2579 l 0 239 "/>
<use xlink:href="#M1" transform="translate(5252, 2612) scale(4.430)"/>

<path fill="none" d="M 5236 2612 l 30 0 M 5252 2482 l 0 242 "/>
<use xlink:href="#M1" transform="translate(5281, 2754) scale(4.430)"/>

<path fill="none" d="M 5266 2754 l 30 0 M 5281 2634 l 0 224 "/>
<use xlink:href="#M1" transform="translate(5310, 3097) scale(4.430)"/>

<path fill="none" d="M 5296 3097 l 28 0 M 5310 2978 l 0 223 "/>
<use xlink:href="#M1" transform="translate(5339, 3342) scale(4.430)"/>

<path fill="none" d="M 5324 3342 l 30 0 M 5339 3232 l 0 207 "/>
<use xlink:href="#M1" transform="translate(5369, 3656) scale(4.430)"/>

<path fill="none" d="M 5354 3656 l 30 0 M 5369 3550 l 0 199 "/>
<use xlink:href="#M1" transform="translate(5398, 3740) scale(4.430)"/>

<path fill="none" d="M 5384 3740 l 29 0 M 5398 3634 l 0 201 "/>
<use xlink:href="#M1" transform="translate(5427, 3774) scale(4.430)"/>

<path fill="none" d="M 5413 3774 l 28 0 M 5427 3666 l 0 204 "/>
<use xlink:href="#M1" transform="translate(5456, 3418) scale(4.430)"/>

<path fill="none" d="M 5441 3418 l 30 0 M 5456 3311 l 0 202 "/>
<use xlink:href="#M1" transform="translate(5486, 3566) scale(4.430)"/>

<path fill="none" d="M 5471 3566 l 29 0 M 5486 3464 l 0 194 "/>
<use xlink:href="#M1" transform="translate(5514, 3169) scale(4.430)"/>

<path fill="none" d="M 5500 3169 l 29 0 M 5514 3058 l 0 209 "/>
<use xlink:href="#M1" transform="translate(5544, 3040) scale(4.430)"/>

<path fill="none" d="M 5529 3040 l 29 0 M 5544 2933 l 0 202 "/>
<use xlink:href="#M1" transform="translate(5573, 2752) scale(4.430)"/>

<path fill="none" d="M 5558 2752 l 30 0 M 5573 2643 l 0 206 "/>
<use xlink:href="#M1" transform="translate(5602, 2740) scale(4.430)"/>

<path fill="none" d="M 5588 2740 l 28 0 M 5602 2631 l 0 205 "/>
<use xlink:href="#M1" transform="translate(5631, 2700) scale(4.430)"/>

<path fill="none" d="M 5616 2700 l 30 0 M 5631 2593 l 0 201 "/>
<use xlink:href="#M1" transform="translate(5661, 2500) scale(4.430)"/>

<path fill="none" d="M 5646 2500 l 29 0 M 5661 2386 l 0 214 "/>
<use xlink:href="#M1" transform="translate(5690, 2409) scale(4.430)"/>

<path fill="none" d="M 5675 2409 l 29 0 M 5690 2296 l 0 212 "/>
<use xlink:href="#M1" transform="translate(5719, 2365) scale(4.430)"/>

<path fill="none" d="M 5704 2365 l 29 0 M 5719 2253 l 0 211 "/>
<use xlink:href="#M1" transform="translate(5748, 2382) scale(4.430)"/>

<path fill="none" d="M 5733 2382 l 29 0 M 5748 2271 l 0 209 "/>
<use xlink:href="#M1" transform="translate(5777, 2228) scale(4.430)"/>

<path fill="none" d="M 5762 2228 l 29 0 M 5777 2112 l 0 217 "/>
<use xlink:href="#M1" transform="translate(5805, 2009) scale(4.430)"/>

<path fill="none" d="M 5791 2009 l 29 0 M 5805 1889 l 0 225 "/>
<use xlink:href="#M1" transform="translate(5834, 1909) scale(4.430)"/>

<path fill="none" d="M 5820 1909 l 29 0 M 5834 1782 l 0 237 "/>
<use xlink:href="#M1" transform="translate(5864, 1931) scale(4.430)"/>

<path fill="none" d="M 5849 1931 l 29 0 M 5864 1810 l 0 227 "/>
<use xlink:href="#M1" transform="translate(5893, 1925) scale(4.430)"/>

<path fill="none" d="M 5878 1925 l 29 0 M 5893 1803 l 0 228 "/>
<use xlink:href="#M1" transform="translate(5921, 1999) scale(4.430)"/>

<path fill="none" d="M 5907 1999 l 29 0 M 5921 1880 l 0 222 "/>
<use xlink:href="#M1" transform="translate(5950, 1881) scale(4.430)"/>

<path fill="none" d="M 5936 1881 l 29 0 M 5950 1762 l 0 223 "/>
<use xlink:href="#M1" transform="translate(5979, 1713) scale(4.430)"/>

<path fill="none" d="M 5965 1713 l 28 0 M 5979 1588 l 0 234 "/>
<use xlink:href="#M1" transform="translate(6008, 1707) scale(4.430)"/>

<path fill="none" d="M 5993 1707 l 29 0 M 6008 1583 l 0 232 "/>
<use xlink:href="#M1" transform="translate(6037, 1677) scale(4.430)"/>

<path fill="none" d="M 6022 1677 l 29 0 M 6037 1551 l 0 234 "/>
<use xlink:href="#M1" transform="translate(6066, 1718) scale(4.430)"/>

<path fill="none" d="M 6051 1718 l 29 0 M 6066 1596 l 0 227 "/>
<use xlink:href="#M1" transform="translate(6095, 1536) scale(4.430)"/>

<path fill="none" d="M 6080 1536 l 29 0 M 6095 1400 l 0 253 "/>
<use xlink:href="#M1" transform="translate(6124, 1653) scale(4.430)"/>

<path fill="none" d="M 6109 1653 l 29 0 M 6124 1532 l 0 226 "/>
<use xlink:href="#M1" transform="translate(6153, 1608) scale(4.430)"/>

<path fill="none" d="M 6138 1608 l 29 0 M 6153 1480 l 0 239 "/>
<use xlink:href="#M1" transform="translate(6182, 1703) scale(4.430)"/>

<path fill="none" d="M 6167 1703 l 29 0 M 6182 1588 l 0 216 "/>
<use xlink:href="#M1" transform="translate(6210, 1671) scale(4.430)"/>

<path fill="none" d="M 6196 1671 l 29 0 M 6210 1551 l 0 225 "/>
<use xlink:href="#M1" transform="translate(6239, 1577) scale(4.430)"/>

<path fill="none" d="M 6225 1577 l 29 0 M 6239 1456 l 0 227 "/>
<use xlink:href="#M1" transform="translate(6268, 1592) scale(4.430)"/>

<path fill="none" d="M 6254 1592 l 28 0 M 6268 1474 l 0 221 "/>
<use xlink:href="#M1" transform="translate(6297, 1598) scale(4.430)"/>

<path fill="none" d="M 6282 1598 l 29 0 M 6297 1481 l 0 219 "/>
<use xlink:href="#M1" transform="translate(6325, 1538) scale(4.430)"/>

<path fill="none" d="M 6311 1538 l 28 0 M 6325 1417 l 0 227 "/>
<use xlink:href="#M1" transform="translate(6354, 1586) scale(4.430)"/>

<path fill="none" d="M 6339 1586 l 29 0 M 6354 1468 l 0 220 "/>
<use xlink:href="#M1" transform="translate(6383, 1513) scale(4.430)"/>

<path fill="none" d="M 6368 1513 l 29 0 M 6383 1394 l 0 223 "/>
<use xlink:href="#M1" transform="translate(6411, 1563) scale(4.430)"/>

<path fill="none" d="M 6397 1563 l 28 0 M 6411 1452 l 0 208 "/>
<use xlink:href="#M1" transform="translate(6440, 1342) scale(4.430)"/>

<path fill="none" d="M 6425 1342 l 29 0 M 6440 1212 l 0 242 "/>
<use xlink:href="#M1" transform="translate(6469, 1188) scale(4.430)"/>

<path fill="none" d="M 6454 1188 l 29 0 M 6469 1052 l 0 252 "/>
<use xlink:href="#M1" transform="translate(6498, 996) scale(4.430)"/>

<path fill="none" d="M 6483 996 l 29 0 M 6498 838 l 0 291 "/>
</g>
<g style="color: rgb(0, 0, 0); fill: currentColor; stroke: currentColor; stroke-width: 8">

<path fill="none" d="M 955 2986 l 88 0 l 0 0 l 82 0 l 0 0 l 76 0 l 0 0 l 72 0 l 0 -1 l 68 0 l 0 0 
l 65 0 l 0 0 l 61 0 l 0 0 l 58 0 l 0 0 l 56 0 l 0 0 l 53 0 l 0 -1 l 51 0 
l 0 0 l 49 0 l 0 0 l 47 0 l 0 0 l 46 0 l 0 0 l 43 0 l 0 -1 l 43 0 l 0 0 
l 40 0 l 0 0 l 40 0 l 0 0 l 38 0 l 0 -1 l 37 0 l 0 0 l 36 0 l 0 0 l 35 0 
l 0 0 l 34 0 l 0 -1 l 33 0 l 0 0 l 33 0 l 0 0 l 31 0 l 0 -1 l 31 0 l 0 0 
l 29 0 l 0 0 l 30 0 l 0 -1 l 56 0 l 0 -1 l 54 0 l 0 0 l 51 0 l 0 -1 l 50 0 
l 0 -1 l 47 0 l 0 -1 l 46 0 l 0 -1 l 44 0 l 0 -1 l 43 0 l 0 -1 l 41 0 l 0 -1 
l 40 0 l 0 -1 l 38 0 l 0 -1 l 38 0 l 0 -1 l 36 0 l 0 -1 l 35 0 l 0 -1 l 35 0 
l 0 -2 l 33 0 l 0 -1 l 32 0 l 0 -1 l 32 0 l 0 -1 l 31 0 l 0 -2 l 30 0 l 0 -1 
l 29 0 l 0 -1 l 29 0 l 0 -2 l 41 0 l 0 -2 l 41 0 l 0 -3 l 39 0 l 0 -2 l 38 0 
l 0 -2 l 36 0 l 0 -3 l 36 0 l 0 -2 l 35 0 l 0 -3 l 33 0 l 0 -3 l 33 0 l 0 -2 
l 32 0 l 0 -3 l 31 0 l 0 -3 l 31 0 l 0 -3 l 29 0 l 0 -3 l 29 0 l 0 -3 l 38 0 
l 0 -4 l 36 0 l 0 -4 l 36 0 l 0 -4 l 34 0 l 0 -5 l 33 0 l 0 -4 l 33 0 l 0 -5 
l 32 0 l 0 -4 l 31 0 l 0 -5 l 30 0 l 0 -4 l 29 0 l 0 -5 l 29 0 l 0 -6 l 35 0 
l 0 -6 l 34 0 l 0 -6 l 33 0 l 0 -6 l 32 0 l 0 -6 l 32 0 l 0 -6 l 30 0 l 0 -7 
l 30 0 l 0 -6 l 29 0 l 0 -6 l 29 0 l 0 -7 l 33 0 l 0 -8 l 32 0 l 0 -7 l 32 0 
l 0 -7 l 31 0 l 0 -7 l 30 0 l 0 -7 l 29 0 l 0 -6 l 29 0 l 0 -7 l 32 0 l 0 -6 
l 32 0 l 0 -6 l 31 0 l 0 -4 l 30 0 l 0 -4 l 30 0 l 0 -1 l 28 0 l 0 0 l 33 0 
l 0 5 l 31 0 l 0 8 l 30 0 l 0 15 l 30 0 l 0 22 l 29 0 l 0 33 l 28 0 l 0 49 
l 31 0 l 0 71 l 31 0 l 0 93 l 29 0 l 0 107 l 29 0 l 0 97 l 29 0 l 0 47 l 30 0 
l 0 -43 l 30 0 l 0 -120 l 29 0 l 0 -144 l 29 0 l 0 -139 l 30 0 l 0 -121 l 30 0 l 0 -96 
l 30 0 l 0 -76 l 28 0 l 0 -65 l 30 0 l 0 -57 l 30 0 l 0 -49 l 29 0 l 0 -42 l 28 0 
l 0 -40 l 30 0 l 0 -38 l 29 0 l 0 -34 l 29 0 l 0 -34 l 29 0 l 0 -34 l 30 0 l 0 -32 
l 28 0 l 0 -31 l 30 0 l 0 -32 l 29 0 l 0 -31 l 29 0 l 0 -31 l 29 0 l 0 -31 l 29 0 
l 0 -30 l 29 0 l 0 -31 l 29 0 l 0 -31 l 29 0 l 0 -31 l 29 0 l 0 -32 l 29 0 l 0 -31 
l 29 0 l 0 -31 l 29 0 l 0 -32 l 28 0 l 0 -32 l 29 0 l 0 -32 l 29 0 l 0 -32 l 29 0 
l 0 -33 l 29 0 l 0 -33 l 29 0 l 0 -33 l 29 0 l 0 -33 l 29 0 l 0 -33 l 29 0 l 0 -34 
l 29 0 l 0 -33 l 28 0 l 0 -34 l 29 0 l 0 -34 l 28 0 l 0 -34 l 29 0 l 0 -34 l 29 0 
l 0 -35 l 28 0 l 0 -34 l 29 0 l 0 -35 l 29 0 l 0 -35 l 29 0 M 955 2986 l 88 0 M 1000 2986 l 0 0 
M 1043 2986 l 82 0 M 1084 2986 l 0 0 M 1125 2986 l 76 0 M 1163 2986 l 0 0 M 1201 2986 l 72 0 M 1238 2986 l 0 0 
M 1273 2985 l 68 0 M 1308 2985 l 0 0 M 1341 2985 l 65 0 M 1374 2985 l 0 0 M 1406 2985 l 61 0 M 1437 2985 l 0 0 
M 1467 2985 l 58 0 M 1496 2985 l 0 0 M 1525 2985 l 56 0 M 1553 2985 l 0 0 M 1581 2985 l 53 0 M 1608 2985 l 0 0 
M 1634 2984 l 51 0 M 1660 2984 l 0 0 M 1685 2984 l 49 0 M 1710 2984 l 0 0 M 1734 2984 l 47 0 M 1758 2984 l 0 0 
M 1781 2984 l 46 0 M 1804 2984 l 0 0 M 1827 2984 l 43 0 M 1849 2984 l 0 0 M 1870 2983 l 43 0 M 1892 2983 l 0 0 
M 1913 2983 l 40 0 M 1933 2983 l 0 0 M 1953 2983 l 40 0 M 1973 2983 l 0 0 M 1993 2983 l 38 0 M 2012 2983 l 0 0 
M 2031 2982 l 37 0 M 2050 2982 l 0 0 M 2068 2982 l 36 0 M 2086 2982 l 0 0 M 2104 2982 l 35 0 M 2122 2982 l 0 0 
M 2139 2982 l 34 0 M 2156 2982 l 0 0 M 2173 2981 l 33 0 M 2190 2981 l 0 0 M 2206 2981 l 33 0 M 2223 2981 l 0 0 
M 2239 2981 l 31 0 M 2254 2981 l 0 0 M 2270 2980 l 31 0 M 2285 2980 l 0 0 M 2301 2980 l 29 0 M 2316 2980 l 0 0 
M 2330 2980 l 30 0 M 2345 2980 l 0 0 M 2360 2979 l 56 0 M 2388 2979 l 0 0 M 2416 2978 l 54 0 M 2443 2978 l 0 0 
M 2470 2978 l 51 0 M 2496 2978 l 0 0 M 2521 2977 l 50 0 M 2546 2977 l 0 0 M 2571 2976 l 47 0 M 2595 2976 l 0 0 
M 2618 2975 l 46 0 M 2641 2975 l 0 0 M 2664 2974 l 44 0 M 2686 2974 l 0 0 M 2708 2973 l 43 0 M 2730 2973 l 0 0 
M 2751 2972 l 41 0 M 2772 2972 l 0 0 M 2792 2971 l 40 0 M 2812 2971 l 0 0 M 2832 2970 l 38 0 M 2851 2970 l 0 0 
M 2870 2969 l 38 0 M 2889 2969 l 0 0 M 2908 2968 l 36 0 M 2926 2968 l 0 0 M 2944 2967 l 35 0 M 2962 2967 l 0 0 
M 2979 2966 l 35 0 M 2997 2966 l 0 0 M 3014 2964 l 33 0 M 3030 2964 l 0 0 M 3047 2963 l 32 0 M 3063 2963 l 0 0 
M 3079 2962 l 32 0 M 3095 2962 l 0 0 M 3111 2961 l 31 0 M 3126 2961 l 0 0 M 3142 2959 l 30 0 M 3157 2959 l 0 0 
M 3172 2958 l 29 0 M 3186 2958 l 0 0 M 3201 2957 l 29 0 M 3215 2957 l 0 0 M 3230 2955 l 41 0 M 3251 2955 l 0 0 
M 3271 2953 l 41 0 M 3292 2953 l 0 0 M 3312 2950 l 39 0 M 3331 2950 l 0 0 M 3351 2948 l 38 0 M 3370 2948 l 0 0 
M 3389 2946 l 36 0 M 3407 2946 l 0 0 M 3425 2943 l 36 0 M 3443 2943 l 0 0 M 3461 2941 l 35 0 M 3479 2941 l 0 0 
M 3496 2938 l 33 0 M 3513 2938 l 0 0 M 3529 2935 l 33 0 M 3546 2935 l 0 0 M 3562 2933 l 32 0 M 3578 2933 l 0 0 
M 3594 2930 l 31 0 M 3610 2930 l 0 0 M 3625 2927 l 31 0 M 3641 2927 l 0 0 M 3656 2924 l 29 0 M 3671 2924 l 0 0 
M 3685 2921 l 29 0 M 3700 2921 l 0 0 M 3714 2918 l 38 0 M 3733 2918 l 0 0 M 3752 2914 l 36 0 M 3770 2914 l 0 0 
M 3788 2910 l 36 0 M 3806 2910 l 0 0 M 3824 2906 l 34 0 M 3841 2906 l 0 0 M 3858 2901 l 33 0 M 3875 2901 l 0 0 
M 3891 2897 l 33 0 M 3908 2897 l 0 0 M 3924 2892 l 32 0 M 3940 2892 l 0 0 M 3956 2888 l 31 0 M 3971 2888 l 0 0 
M 3987 2883 l 30 0 M 4002 2883 l 0 0 M 4017 2879 l 29 0 M 4031 2879 l 0 0 M 4046 2874 l 29 0 M 4061 2874 l 0 0 
M 4075 2868 l 35 0 M 4092 2868 l 0 0 M 4110 2862 l 34 0 M 4127 2862 l 0 0 M 4144 2856 l 33 0 M 4160 2856 l 0 0 
M 4177 2850 l 32 0 M 4193 2850 l 0 0 M 4209 2844 l 32 0 M 4225 2844 l 0 0 M 4241 2838 l 30 0 M 4256 2838 l 0 0 
M 4271 2831 l 30 0 M 4286 2831 l 0 0 M 4301 2825 l 29 0 M 4316 2825 l 0 0 M 4330 2819 l 29 0 M 4344 2819 l 0 0 
M 4359 2812 l 33 0 M 4375 2812 l 0 0 M 4392 2804 l 32 0 M 4408 2804 l 0 0 M 4424 2797 l 32 0 M 4440 2797 l 0 0 
M 4456 2790 l 31 0 M 4471 2790 l 0 0 M 4487 2783 l 30 0 M 4502 2783 l 0 0 M 4517 2776 l 29 0 M 4532 2776 l 0 0 
M 4546 2770 l 29 0 M 4561 2770 l 0 0 M 4575 2763 l 32 0 M 4591 2763 l 0 0 M 4607 2757 l 32 0 M 4623 2757 l 0 0 
M 4639 2751 l 31 0 M 4655 2751 l 0 0 M 4670 2747 l 30 0 M 4685 2747 l 0 0 M 4700 2743 l 30 0 M 4715 2743 l 0 0 
M 4730 2742 l 28 0 M 4744 2742 l 0 0 M 4758 2742 l 33 0 M 4775 2742 l 0 0 M 4791 2747 l 31 0 M 4806 2747 l 0 0 
M 4822 2755 l 30 0 M 4837 2755 l 0 0 M 4852 2770 l 30 0 M 4867 2770 l 0 0 M 4882 2792 l 29 0 M 4897 2792 l 0 0 
M 4911 2825 l 28 0 M 4925 2825 l 0 0 M 4939 2874 l 31 0 M 4955 2874 l 0 0 M 4970 2945 l 31 0 M 4986 2945 l 0 0 
M 5001 3038 l 29 0 M 5016 3038 l 0 0 M 5030 3145 l 29 0 M 5045 3145 l 0 0 M 5059 3242 l 29 0 M 5074 3242 l 0 0 
M 5088 3289 l 30 0 M 5103 3289 l 0 0 M 5118 3246 l 30 0 M 5133 3246 l 0 0 M 5148 3126 l 29 0 M 5163 3126 l 0 0 
M 5177 2982 l 29 0 M 5192 2982 l 0 0 M 5206 2843 l 30 0 M 5221 2843 l 0 0 M 5236 2722 l 30 0 M 5252 2722 l 0 0 
M 5266 2626 l 30 0 M 5281 2626 l 0 0 M 5296 2550 l 28 0 M 5310 2550 l 0 0 M 5324 2485 l 30 0 M 5339 2485 l 0 0 
M 5354 2428 l 30 0 M 5369 2428 l 0 0 M 5384 2379 l 29 0 M 5398 2379 l 0 0 M 5413 2337 l 28 0 M 5427 2337 l 0 0 
M 5441 2297 l 30 0 M 5456 2297 l 0 0 M 5471 2259 l 29 0 M 5486 2259 l 0 0 M 5500 2225 l 29 0 M 5514 2225 l 0 0 
M 5529 2191 l 29 0 M 5544 2191 l 0 0 M 5558 2157 l 30 0 M 5573 2157 l 0 0 M 5588 2125 l 28 0 M 5602 2125 l 0 0 
M 5616 2094 l 30 0 M 5631 2094 l 0 0 M 5646 2062 l 29 0 M 5661 2062 l 0 0 M 5675 2031 l 29 0 M 5690 2031 l 0 0 
M 5704 2000 l 29 0 M 5719 2000 l 0 0 M 5733 1969 l 29 0 M 5748 1969 l 0 0 M 5762 1939 l 29 0 M 5777 1939 l 0 0 
M 5791 1908 l 29 0 M 5805 1908 l 0 0 M 5820 1877 l 29 0 M 5834 1877 l 0 0 M 5849 1846 l 29 0 M 5864 1846 l 0 0 
M 5878 1814 l 29 0 M 5893 1814 l 0 0 M 5907 1783 l 29 0 M 5921 1783 l 0 0 M 5936 1752 l 29 0 M 5950 1752 l 0 0 
M 5965 1720 l 28 0 M 5979 1720 l 0 0 M 5993 1688 l 29 0 M 6008 1688 l 0 0 M 6022 1656 l 29 0 M 6037 1656 l 0 0 
M 6051 1624 l 29 0 M 6066 1624 l 0 0 M 6080 1591 l 29 0 M 6095 1591 l 0 0 M 6109 1558 l 29 0 M 6124 1558 l 0 0 
M 6138 1525 l 29 0 M 6153 1525 l 0 0 M 6167 1492 l 29 0 M 6182 1492 l 0 0 M 6196 1459 l 29 0 M 6210 1459 l 0 0 
M 6225 1425 l 29 0 M 6239 1425 l 0 0 M 6254 1392 l 28 0 M 6268 1392 l 0 0 M 6282 1358 l 29 0 M 6297 1358 l 0 0 
M 6311 1324 l 28 0 M 6325 1324 l 0 0 M 6339 1290 l 29 0 M 6354 1290 l 0 0 M 6368 1256 l 29 0 M 6383 1256 l 0 0 
M 6397 1221 l 28 0 M 6411 1221 l 0 0 M 6425 1187 l 29 0 M 6440 1187 l 0 0 M 6454 1152 l 29 0 M 6469 1152 l 0 0 
M 6483 1117 l 29 0 M 6498 1117 l 0 0 "/>
<text transform='translate(148,817) scale(1,-1) rotate(-90)'><tspan class='fr' style='font-size: 1772%;'  >Power&#x00A0;(Leahy&#x00A0;Normalized)</tspan></text>
<text transform='translate(2510,-28) scale(1,-1)'><tspan class='fr' style='font-size: 1772%;'  >Frequency&#x00A0;(Hz)</tspan></text>
</g>
<!-- _PGPLOT_SVG_ATEND: viewbox="          -71.657761           -88.998741          6884.404785          5166.998535" -->
</svg>
