<svg xmlns="http://www.w3.org/2000/svg" xmlns:xlink="http://www.w3.org/1999/xlink" 
style="fill-rule: nonzero; stroke-linecap: round; stroke-linejoin: round; transform: scale(1,-1);" 
version="1.1" 
viewbox="          -71.657761           -88.998741          6884.404785          5166.998535" 
width="100%" height="100%" preserveAspectRatio="xMidYMid" 
>
<style>
  .fn { font-family: Arial,Helvetica,sans-serif; }
  .fN { font-family: Arial,Helvetica,sans-serif; font-weight: bold;}
  .fr { font-family: Times,Times-Roman,Times New Roman,serif; }
  .fR { font-family: Times,Times-Roman,Times New Roman,serif; font-weight: bold;}
  .fi { font-family: Times,Times-Roman,Times New Roman,serif; font-style: italic;}
  .fI { font-family: Times,Times-Roman,Times New Roman,serif; font-style: italic; font-weight: bold;}
  .fs { font-family: Zapf-Chancery,Apple Chancery,URW Chancery L,cursive;}
  .fS { font-family: Zapf-Chancery,Apple Chancery,URW Chancery L,cursive;font-weight:bold}
  .fc { font-family: Arial Narrow,Helvetica Narrow,Arial,Helvetica,sans-serif;}
  .fC { font-family: Arial Narrow,Helvetica Narrow,Arial,Helvetica,sans-serif; font-weight:bold;}
</style>
<g style="color: rgb(0, 0, 0); fill: currentColor; stroke: currentColor; stroke-width: 8">

<path fill="none" d="M 890 691 l 5639 0 l 0 4377 l -5639 0 l 0 -4377 l 0 133 M 1739 691 l 0 67 M 2235 691 l 0 67 M 2588 691 l 0 67 
M 2861 691 l 0 67 M 3084 691 l 0 67 M 3273 691 l 0 67 M 3436 691 l 0 67 M 3580 691 l 0 67 M 3710 691 l 0 133 
M 4558 691 l 0 67 M 5055 691 l 0 67 M 5407 691 l 0 67 M 5680 691 l 0 67 M 5903 691 l 0 67 M 6092 691 l 0 67 
M 6256 691 l 0 67 M 6400 691 l 0 67 M 6529 691 l 0 133 M 890 4935 l 0 133 M 1739 5001 l 0 67 M 2235 5001 l 0 67 
M 2588 5001 l 0 67 M 2861 5001 l 0 67 M 3084 5001 l 0 67 M 3273 5001 l 0 67 M 3436 5001 l 0 67 M 3580 5001 l 0 67 
M 3710 4935 l 0 133 M 4558 5001 l 0 67 M 5055 5001 l 0 67 M 5407 5001 l 0 67 M 5680 5001 l 0 67 M 5903 5001 l 0 67 
M 6092 5001 l 0 67 M 6256 5001 l 0 67 M 6400 5001 l 0 67 M 6529 4935 l 0 133 "/>
<text transform='translate(667,345) scale(1,-1)'><tspan class='fr' style='font-size: 1772%;'  >0.1</tspan></text>
<text transform='translate(3620,345) scale(1,-1)'><tspan class='fr' style='font-size: 1772%;'  >1</tspan></text>
<text transform='translate(6351,345) scale(1,-1)'><tspan class='fr' style='font-size: 1772%;'  >10</tspan></text>

<path fill="none" d="M 890 691 l 133 0 M 890 1264 l 67 0 M 890 1599 l 67 0 M 890 1836 l 67 0 M 890 2021 l 67 0 M 890 2171 l 67 0 
M 890 2299 l 67 0 M 890 2409 l 67 0 M 890 2506 l 67 0 M 890 2593 l 133 0 M 890 3166 l 67 0 M 890 3501 l 67 0 
M 890 3738 l 67 0 M 890 3923 l 67 0 M 890 4073 l 67 0 M 890 4201 l 67 0 M 890 4311 l 67 0 M 890 4408 l 67 0 
M 890 4495 l 133 0 M 890 5068 l 67 0 M 6396 691 l 133 0 M 6462 1264 l 67 0 M 6462 1599 l 67 0 M 6462 1836 l 67 0 
M 6462 2021 l 67 0 M 6462 2171 l 67 0 M 6462 2299 l 67 0 M 6462 2409 l 67 0 M 6462 2506 l 67 0 M 6396 2593 l 133 0 
M 6462 3166 l 67 0 M 6462 3501 l 67 0 M 6462 3738 l 67 0 M 6462 3923 l 67 0 M 6462 4073 l 67 0 M 6462 4201 l 67 0 
M 6462 4311 l 67 0 M 6462 4408 l 67 0 M 6396 4495 l 133 0 M 6462 5068 l 67 0 "/>
<text transform='translate(688,602) scale(1,-1) rotate(-90)'><tspan class='fr' style='font-size: 1772%;'  >1</tspan></text>
<text transform='translate(688,2415) scale(1,-1) rotate(-90)'><tspan class='fr' style='font-size: 1772%;'  >10</tspan></text>
<text transform='translate(688,4229) scale(1,-1) rotate(-90)'><tspan class='fr' style='font-size: 1772%;'  >100</tspan></text>

<path fill="none" d="M 909 2986 l 91 0 l 84 0 l 79 0 l 75 0 l 70 -1 l 66 0 l 63 0 l 59 0 l 57 0 l 55 0 
l 52 -1 l 50 0 l 48 0 l 46 0 l 45 0 l 43 -1 l 41 0 l 40 0 l 39 0 l 38 -1 l 36 0 
l 36 0 l 34 0 l 34 -1 l 33 0 l 31 0 l 31 -1 l 31 0 l 29 0 l 43 -1 l 55 -1 l 53 0 
l 50 -1 l 49 -1 l 46 -1 l 45 -1 l 44 -1 l 42 -1 l 40 -1 l 39 -1 l 38 -1 l 37 -1 l 36 -1 
l 35 -1 l 33 -2 l 33 -1 l 32 -1 l 31 -1 l 31 -2 l 29 -1 l 29 -1 l 36 -2 l 41 -2 l 39 -3 
l 39 -2 l 37 -2 l 36 -3 l 36 -2 l 34 -3 l 33 -3 l 32 -2 l 32 -3 l 31 -3 l 30 -3 l 29 -3 
l 33 -3 l 37 -4 l 36 -4 l 35 -4 l 34 -5 l 33 -4 l 32 -5 l 31 -4 l 31 -5 l 29 -4 l 30 -5 
l 31 -6 l 35 -6 l 33 -6 l 33 -6 l 32 -6 l 31 -6 l 30 -7 l 30 -6 l 28 -6 l 31 -7 l 33 -8 
l 32 -7 l 31 -7 l 31 -7 l 30 -7 l 29 -6 l 30 -7 l 32 -6 l 32 -6 l 30 -4 l 30 -4 l 29 -1 
l 31 0 l 31 5 l 31 8 l 30 15 l 30 22 l 28 33 l 30 49 l 31 71 l 30 93 l 29 107 l 29 97 
l 29 47 l 30 -43 l 30 -120 l 29 -144 l 29 -139 l 31 -121 l 29 -96 l 29 -76 l 29 -65 l 30 -57 l 29 -49 
l 29 -42 l 29 -40 l 30 -38 l 28 -34 l 30 -34 l 29 -34 l 29 -32 l 29 -31 l 30 -32 l 29 -31 l 29 -31 
l 29 -31 l 29 -30 l 28 -31 l 29 -31 l 30 -31 l 29 -32 l 28 -31 l 29 -31 l 29 -32 l 29 -32 l 29 -32 
l 29 -32 l 29 -33 l 29 -33 l 29 -33 l 29 -33 l 28 -33 l 29 -34 l 29 -33 l 29 -34 l 28 -34 l 29 -34 
l 29 -34 l 28 -35 l 29 -34 l 29 -35 l 29 -35 l 28 -35 "/>
</g>
<g style="color: rgb(0, 0, 0); fill: currentColor; stroke: currentColor; stroke-width: 4">

<path fill="none" d="M 4686 691 l 2 6 M 4698 730 l 2 5 M 4710 768 l 2 5 M 4722 807 l 1 5 M 4733 845 l 2 6 M 4744 884 l 0 0 
l 2 6 M 4755 923 l 1 6 M 4765 962 l 1 6 M 4775 1001 l 2 6 M 4785 1040 l 1 6 M 4794 1079 l 2 6 
M 4804 1118 l 1 6 M 4813 1158 l 1 5 M 4822 1197 l 1 6 M 4830 1236 l 2 6 M 4839 1276 l 1 5 M 4847 1315 l 1 6 
M 4855 1355 l 1 6 M 4863 1394 l 1 6 M 4870 1434 l 1 6 M 4877 1474 l 1 5 M 4885 1513 l 1 6 M 4892 1553 l 1 6 
M 4899 1593 l 1 5 M 4905 1632 l 1 6 M 4912 1672 l 1 6 M 4918 1712 l 1 6 M 4925 1752 l 0 2 l 1 4 
M 4931 1792 l 1 5 M 4937 1832 l 1 5 M 4943 1871 l 1 6 M 4949 1911 l 0 6 M 4954 1951 l 1 4 l 0 2 
M 4960 1991 l 1 6 M 4965 2031 l 1 6 M 4971 2071 l 1 6 M 4976 2111 l 1 6 M 4982 2151 l 0 6 M 4987 2191 l 1 6 
M 4992 2231 l 1 6 M 4997 2271 l 1 6 M 5002 2311 l 1 6 M 5007 2351 l 1 6 M 5012 2391 l 1 6 M 5017 2431 l 1 6 
M 5023 2471 l 0 6 M 5028 2511 l 0 6 M 5033 2551 l 1 5 M 5038 2591 l 1 5 M 5043 2631 l 1 5 M 5049 2671 l 1 5 
M 5055 2710 l 1 6 M 5062 2750 l 0 6 M 5068 2790 l 1 6 M 5075 2830 l 1 5 M 5087 2868 l 2 5 M 5100 2906 l 2 6 
M 5118 2886 l 2 -5 M 5134 2850 l 1 -6 M 5141 2810 l 1 -6 M 5147 2770 l 1 -5 M 5153 2730 l 1 -5 M 5160 2691 l 1 -6 
M 5165 2651 l 1 -6 M 5170 2611 l 0 -6 M 5174 2571 l 1 -6 M 5179 2531 l 1 -6 M 5184 2491 l 0 -6 M 5188 2451 l 1 -6 
M 5193 2410 l 0 -5 M 5197 2370 l 1 -5 M 5202 2330 l 0 -5 M 5206 2290 l 0 -5 M 5210 2250 l 1 -6 M 5215 2210 l 0 -6 
M 5219 2170 l 0 -6 M 5223 2130 l 1 -6 M 5228 2090 l 0 -6 M 5232 2050 l 1 -6 M 5237 2010 l 0 -6 M 5241 1970 l 1 -6 
M 5245 1930 l 1 -6 M 5250 1890 l 0 -6 M 5254 1849 l 1 -5 M 5259 1809 l 1 -5 M 5264 1769 l 1 -5 M 5269 1729 l 0 -5 
M 5273 1689 l 1 -5 M 5278 1649 l 1 -5 M 5283 1609 l 1 -5 M 5288 1569 l 1 -5 M 5293 1529 l 1 -5 M 5299 1489 l 0 -5 
M 5304 1449 l 0 -5 M 5309 1409 l 1 -5 M 5314 1369 l 1 -5 M 5320 1330 l 1 -6 M 5325 1290 l 1 -6 M 5331 1250 l 1 -6 
M 5337 1210 l 0 -6 M 5342 1170 l 1 -6 M 5349 1130 l 0 -6 M 5355 1090 l 0 -6 M 5361 1050 l 0 -5 M 5367 1010 l 0 -5 
M 5373 971 l 1 -6 M 5379 931 l 1 -6 M 5386 891 l 1 -6 M 5392 851 l 1 -5 M 5399 811 l 1 -5 M 5406 772 l 1 -6 
M 5413 732 l 1 -6 M 5420 692 l 0 -1 M 909 2981 l 6 0 M 950 2981 l 5 0 M 990 2981 l 6 0 M 1030 2981 l 6 0 
M 1071 2981 l 5 0 M 1111 2981 l 6 0 M 1151 2981 l 6 0 M 1191 2981 l 6 0 M 1232 2981 l 6 -1 M 1272 2980 l 6 0 
M 1312 2980 l 6 0 M 1353 2980 l 5 0 M 1393 2980 l 6 0 M 1433 2980 l 4 0 l 2 0 M 1474 2980 l 5 0 
M 1514 2980 l 6 0 M 1554 2980 l 6 0 M 1595 2979 l 5 0 M 1635 2979 l 6 0 M 1675 2979 l 6 0 M 1716 2979 l 5 0 
M 1756 2979 l 2 0 l 4 0 M 1796 2979 l 6 -1 M 1836 2978 l 6 0 M 1877 2978 l 6 0 M 1917 2978 l 6 0 
M 1957 2978 l 6 -1 M 1998 2977 l 5 0 M 2038 2977 l 6 0 M 2078 2977 l 6 0 M 2119 2976 l 3 0 l 2 0 
M 2159 2976 l 6 0 M 2199 2975 l 6 0 M 2240 2975 l 5 0 M 2280 2975 l 5 -1 l 1 0 M 2320 2974 l 6 0 
M 2361 2974 l 5 -1 M 2401 2973 l 6 0 M 2441 2972 l 2 0 l 4 0 M 2481 2972 l 6 0 M 2522 2971 l 5 0 
M 2562 2970 l 6 0 M 2602 2970 l 6 -1 M 2643 2969 l 5 0 M 2683 2968 l 3 0 l 3 0 M 2723 2967 l 6 0 
M 2764 2966 l 5 0 M 2804 2965 l 6 0 M 2844 2964 l 6 0 M 2884 2962 l 5 0 l 1 0 M 2925 2961 l 1 0 
l 4 0 M 2965 2960 l 6 0 M 3005 2958 l 6 0 M 3046 2957 l 5 -1 M 3086 2955 l 6 0 M 3126 2953 l 0 0 
l 6 0 M 3166 2951 l 6 0 M 3207 2949 l 5 0 M 3247 2947 l 4 0 l 2 0 M 3287 2945 l 5 0 l 1 -1 
M 3327 2942 l 4 0 l 2 0 M 3368 2940 l 2 0 l 3 -1 M 3408 2937 l 6 0 M 3448 2934 l 6 0 M 3488 2931 l 6 -1 
M 3528 2928 l 6 -1 M 3569 2924 l 5 -1 M 3609 2920 l 1 0 l 4 0 M 3649 2916 l 6 0 M 3689 2912 l 6 -1 
M 3729 2907 l 4 0 l 2 0 M 3769 2903 l 1 -1 l 5 0 M 3809 2898 l 6 -1 M 3849 2892 l 6 -1 M 3889 2886 l 6 0 
M 3929 2880 l 5 -1 M 3969 2874 l 2 0 l 3 -1 M 4008 2867 l 6 -1 M 4048 2860 l 6 -1 M 4088 2853 l 4 -1 
l 1 -1 M 4127 2845 l 6 -2 M 4166 2836 l 6 -1 M 4206 2827 l 5 -1 M 4245 2818 l 6 -1 M 4284 2808 l 2 0 
l 4 -1 M 4323 2798 l 6 -1 M 4362 2788 l 6 -2 M 4401 2776 l 5 -1 M 4439 2765 l 1 -1 l 5 -1 M 4478 2752 l 5 -2 
M 4516 2739 l 5 -1 M 4554 2726 l 5 -2 M 4592 2712 l 5 -2 M 4629 2698 l 6 -2 M 4667 2683 l 5 -2 M 4704 2667 l 5 -2 
M 4741 2651 l 3 -1 l 2 -1 M 4778 2634 l 5 -2 M 4814 2617 l 5 -2 M 4850 2599 l 5 -2 M 4886 2581 l 5 -3 
M 4922 2562 l 3 -1 l 2 -1 M 4957 2543 l 5 -3 M 4992 2523 l 5 -3 M 5027 2503 l 5 -3 M 5062 2482 l 5 -3 
M 5096 2461 l 5 -3 M 5130 2439 l 3 -2 l 2 -1 M 5164 2417 l 4 -3 M 5197 2394 l 5 -3 M 5230 2371 l 5 -3 
M 5263 2348 l 4 -4 M 5295 2324 l 5 -4 M 5328 2300 l 4 -4 M 5360 2275 l 4 -3 M 5391 2250 l 5 -3 M 5423 2225 l 4 -3 
l 0 -1 M 5454 2200 l 2 -2 l 2 -2 M 5485 2174 l 1 -1 l 3 -3 M 5516 2148 l 4 -4 M 5546 2121 l 4 -4 
M 5576 2095 l 5 -4 M 5606 2068 l 5 -4 M 5636 2041 l 4 -4 M 5666 2013 l 4 -4 M 5695 1986 l 4 -4 M 5724 1958 l 5 -4 
M 5753 1930 l 5 -4 M 5782 1902 l 4 -4 M 5811 1873 l 4 -4 M 5839 1845 l 4 -4 M 5868 1816 l 4 -4 M 5896 1787 l 4 -4 
M 5924 1758 l 4 -4 M 5952 1729 l 4 -4 M 5979 1700 l 4 -5 M 6007 1670 l 1 -1 l 3 -3 M 6034 1641 l 3 -3 
l 1 -2 M 6062 1611 l 3 -4 M 6089 1581 l 4 -4 M 6116 1551 l 4 -4 M 6143 1521 l 3 -4 M 6169 1491 l 4 -4 
M 6196 1461 l 4 -4 M 6223 1431 l 4 -5 M 6249 1400 l 4 -4 M 6276 1370 l 3 -5 M 6302 1339 l 4 -4 M 6328 1309 l 4 -5 
M 6354 1278 l 4 -4 M 6380 1247 l 3 -2 l 1 -2 M 6406 1216 l 4 -4 M 6432 1185 l 4 -4 M 6458 1154 l 4 -4 
M 6484 1123 l 3 -4 M 6509 1092 l 4 -4 "/>
</g>
<g style="color: rgb(0, 0, 0); fill: currentColor; stroke: currentColor; stroke-width: 8">
<text transform='translate(148,817) scale(1,-1) rotate(-90)'><tspan class='fr' style='font-size: 1772%;'  >Power&#x00A0;(Leahy&#x00A0;Normalized)</tspan></text>
<text transform='translate(2510,-28) scale(1,-1)'><tspan class='fr' style='font-size: 1772%;'  >Frequency&#x00A0;(Hz)</tspan></text>
</g>
<!-- _PGPLOT_SVG_ATEND: viewbox="          -71.657761           -88.998741          6884.404785          5166.998535" -->
</svg>
