<svg xmlns="http://www.w3.org/2000/svg" xmlns:xlink="http://www.w3.org/1999/xlink" 
style="fill-rule: nonzero; stroke-linecap: round; stroke-linejoin: round; transform: scale(1,-1);" 
version="1.1" 
viewbox="          225.691208            45.374001          7369.065918          5600.616211" 
width="100%" height="100%" preserveAspectRatio="xMidYMid" 
>
<style>
  .fn { font-family: Arial,Helvetica,sans-serif; }
  .fN { font-family: Arial,Helvetica,sans-serif; font-weight: bold;}
  .fr { font-family: Times,Times-Roman,Times New Roman,serif; }
  .fR { font-family: Times,Times-Roman,Times New Roman,serif; font-weight: bold;}
  .fi { font-family: Times,Times-Roman,Times New Roman,serif; font-style: italic;}
  .fI { font-family: Times,Times-Roman,Times New Roman,serif; font-style: italic; font-weight: bold;}
  .fs { font-family: Zapf-Chancery,Apple Chancery,URW Chancery L,cursive;}
  .fS { font-family: Zapf-Chancery,Apple Chancery,URW Chancery L,cursive;font-weight:bold}
  .fc { font-family: Arial Narrow,Helvetica Narrow,Arial,Helvetica,sans-serif;}
  .fC { font-family: Arial Narrow,Helvetica Narrow,Arial,Helvetica,sans-serif; font-weight:bold;}
</style>
<g style="color: rgb(0, 0, 0); fill: currentColor; stroke: currentColor; stroke-width: 8">

<path fill="none" d="M 742 576 l 5935 0 l 0 4607 l -5935 0 l 0 -4607 M 756 576 l 0 33 M 893 576 l 0 33 M 1005 576 l 0 33 
M 1099 576 l 0 33 M 1181 576 l 0 33 M 1253 576 l 0 33 M 1318 576 l 0 66 M 1742 576 l 0 33 M 1991 576 l 0 33 
M 2167 576 l 0 33 M 2304 576 l 0 33 M 2415 576 l 0 33 M 2510 576 l 0 33 M 2592 576 l 0 33 M 2664 576 l 0 33 
M 2728 576 l 0 66 M 3153 576 l 0 33 M 3401 576 l 0 33 M 3577 576 l 0 33 M 3714 576 l 0 33 M 3826 576 l 0 33 
M 3920 576 l 0 33 M 4002 576 l 0 33 M 4074 576 l 0 33 M 4139 576 l 0 66 M 4563 576 l 0 33 M 4812 576 l 0 33 
M 4988 576 l 0 33 M 5125 576 l 0 33 M 5236 576 l 0 33 M 5331 576 l 0 33 M 5413 576 l 0 33 M 5485 576 l 0 33 
M 5549 576 l 0 66 M 5974 576 l 0 33 M 6222 576 l 0 33 M 6398 576 l 0 33 M 6535 576 l 0 33 M 6647 576 l 0 33 
M 756 5150 l 0 33 M 893 5150 l 0 33 M 1005 5150 l 0 33 M 1099 5150 l 0 33 M 1181 5150 l 0 33 M 1253 5150 l 0 33 
M 1318 5117 l 0 66 M 1742 5150 l 0 33 M 1991 5150 l 0 33 M 2167 5150 l 0 33 M 2304 5150 l 0 33 M 2415 5150 l 0 33 
M 2510 5150 l 0 33 M 2592 5150 l 0 33 M 2664 5150 l 0 33 M 2728 5117 l 0 66 M 3153 5150 l 0 33 M 3401 5150 l 0 33 
M 3577 5150 l 0 33 M 3714 5150 l 0 33 M 3826 5150 l 0 33 M 3920 5150 l 0 33 M 4002 5150 l 0 33 M 4074 5150 l 0 33 
M 4139 5117 l 0 66 M 4563 5150 l 0 33 M 4812 5150 l 0 33 M 4988 5150 l 0 33 M 5125 5150 l 0 33 M 5236 5150 l 0 33 
M 5331 5150 l 0 33 M 5413 5150 l 0 33 M 5485 5150 l 0 33 M 5549 5117 l 0 66 M 5974 5150 l 0 33 M 6222 5150 l 0 33 
M 6398 5150 l 0 33 M 6535 5150 l 0 33 M 6647 5150 l 0 33 "/>
<text transform='translate(1162,403) scale(1,-1)'><tspan class='fr' style='font-size: 886%;'  >0.01</tspan></text>
<text transform='translate(2617,403) scale(1,-1)'><tspan class='fr' style='font-size: 886%;'  >0.1</tspan></text>
<text transform='translate(4094,403) scale(1,-1)'><tspan class='fr' style='font-size: 886%;'  >1</tspan></text>
<text transform='translate(5460,403) scale(1,-1)'><tspan class='fr' style='font-size: 886%;'  >10</tspan></text>

<path fill="none" d="M 742 657 l 33 0 M 742 791 l 33 0 M 742 904 l 33 0 M 742 1002 l 33 0 M 742 1089 l 33 0 M 742 1167 l 66 0 
M 742 1677 l 33 0 M 742 1975 l 33 0 M 742 2187 l 33 0 M 742 2351 l 33 0 M 742 2485 l 33 0 M 742 2599 l 33 0 
M 742 2697 l 33 0 M 742 2784 l 33 0 M 742 2861 l 66 0 M 742 3371 l 33 0 M 742 3670 l 33 0 M 742 3881 l 33 0 
M 742 4046 l 33 0 M 742 4180 l 33 0 M 742 4293 l 33 0 M 742 4391 l 33 0 M 742 4478 l 33 0 M 742 4556 l 66 0 
M 742 5066 l 33 0 M 6644 657 l 33 0 M 6644 791 l 33 0 M 6644 904 l 33 0 M 6644 1002 l 33 0 M 6644 1089 l 33 0 
M 6611 1167 l 66 0 M 6644 1677 l 33 0 M 6644 1975 l 33 0 M 6644 2187 l 33 0 M 6644 2351 l 33 0 M 6644 2485 l 33 0 
M 6644 2599 l 33 0 M 6644 2697 l 33 0 M 6644 2784 l 33 0 M 6611 2861 l 66 0 M 6644 3371 l 33 0 M 6644 3670 l 33 0 
M 6644 3881 l 33 0 M 6644 4046 l 33 0 M 6644 4180 l 33 0 M 6644 4293 l 33 0 M 6644 4391 l 33 0 M 6644 4478 l 33 0 
M 6611 4556 l 66 0 M 6644 5066 l 33 0 "/>
<text transform='translate(641,1055) scale(1,-1) rotate(-90)'><tspan class='fr' style='font-size: 886%;'  >0.1</tspan></text>
<text transform='translate(641,2816) scale(1,-1) rotate(-90)'><tspan class='fr' style='font-size: 886%;'  >1</tspan></text>
<text transform='translate(641,4466) scale(1,-1) rotate(-90)'><tspan class='fr' style='font-size: 886%;'  >10</tspan></text>

<path fill="none" d="M 1167 4906 l 424 0 l 248 0 l 177 0 l 136 0 l 112 0 l 95 0 l 81 0 l 72 0 l 65 0 l 58 0 
l 54 0 l 49 0 l 45 0 l 42 -1 l 40 0 l 37 0 l 35 0 l 33 0 l 32 0 l 29 0 l 29 0 
l 27 -1 l 26 0 l 25 0 l 24 0 l 23 0 l 23 -1 l 21 0 l 21 0 l 20 0 l 20 0 l 18 -1 
l 19 0 l 17 0 l 18 0 l 16 -1 l 17 0 l 16 0 l 15 -1 l 15 0 l 15 0 l 22 -1 l 27 0 
l 26 -1 l 26 -1 l 24 0 l 23 -1 l 23 -1 l 22 -1 l 20 -1 l 21 -1 l 19 -1 l 19 0 l 19 -1 
l 18 -1 l 17 -2 l 17 -1 l 16 -1 l 16 -1 l 16 -1 l 15 -1 l 15 -1 l 15 -2 l 17 -1 l 21 -2 
l 20 -2 l 19 -2 l 18 -2 l 19 -3 l 17 -2 l 17 -2 l 17 -2 l 16 -3 l 16 -2 l 15 -3 l 15 -2 
l 15 -3 l 17 -3 l 18 -4 l 18 -3 l 17 -4 l 17 -4 l 17 -4 l 16 -4 l 16 -4 l 15 -4 l 15 -4 
l 14 -4 l 16 -5 l 18 -6 l 16 -5 l 17 -6 l 16 -5 l 15 -6 l 15 -5 l 15 -6 l 14 -5 l 16 -7 
l 16 -6 l 16 -7 l 16 -6 l 15 -6 l 15 -6 l 15 -6 l 15 -6 l 16 -6 l 16 -5 l 15 -4 l 15 -3 
l 14 -1 l 16 1 l 15 3 l 16 8 l 15 13 l 15 20 l 14 29 l 15 43 l 15 64 l 15 83 l 15 95 
l 14 87 l 15 42 l 15 -39 l 15 -107 l 14 -128 l 15 -124 l 15 -107 l 15 -86 l 14 -68 l 15 -58 l 15 -51 
l 15 -43 l 14 -38 l 15 -35 l 14 -34 l 15 -31 l 14 -30 l 15 -30 l 15 -28 l 14 -28 l 15 -29 l 14 -27 
l 15 -28 l 15 -27 l 14 -27 l 14 -28 l 15 -27 l 14 -28 l 15 -28 l 14 -28 l 15 -28 l 14 -28 l 15 -29 
l 14 -28 l 15 -29 l 14 -29 l 15 -29 l 14 -30 l 15 -29 l 14 -30 l 14 -30 l 15 -30 l 14 -30 l 14 -30 
l 15 -30 l 14 -31 l 14 -30 l 15 -31 l 14 -31 l 15 -32 l 14 -31 l 14 -31 l 15 -32 l 14 -31 l 14 -32 
l 15 -32 l 14 -32 l 14 -32 l 15 -32 l 14 -32 l 14 -32 l 15 -33 l 14 -32 l 14 -32 l 14 -33 l 15 -32 
l 14 -33 l 14 -32 l 14 -33 l 14 -32 l 15 -33 l 14 -33 l 14 -33 l 14 -33 l 15 -33 l 14 -33 l 14 -33 
l 14 -33 l 14 -34 l 15 -33 l 14 -33 l 14 -34 l 14 -33 l 14 -33 l 15 -33 l 14 -34 l 14 -33 l 14 -34 
l 14 -33 l 15 -34 l 14 -33 l 14 -34 l 14 -34 l 14 -33 l 15 -34 l 14 -33 l 14 -34 l 14 -33 l 14 -34 
l 14 -34 l 14 -33 l 15 -34 l 14 -34 l 14 -34 l 14 -33 l 14 -34 l 14 -34 l 15 -34 l 14 -34 l 14 -33 
l 14 -34 l 14 -34 l 15 -34 l 14 -34 l 14 -34 l 14 -33 l 14 -34 l 14 -34 l 14 -34 l 15 -34 l 14 -34 
l 14 -34 l 14 -34 l 14 -33 l 14 -34 l 14 -34 l 15 -34 l 14 -34 l 14 -34 l 14 -34 "/>
</g>
<g style="color: rgb(0, 0, 0); fill: currentColor; stroke: currentColor; stroke-width: 4">

<path fill="none" d="M 1167 1094 l 5 0 M 1207 1094 l 6 0 M 1247 1095 l 6 0 M 1287 1095 l 6 0 M 1328 1095 l 6 0 M 1368 1096 l 6 0 
M 1408 1096 l 6 0 M 1449 1096 l 5 1 M 1489 1097 l 6 0 M 1529 1097 l 6 0 M 1570 1098 l 5 0 M 1610 1098 l 6 0 
M 1650 1099 l 6 0 M 1691 1099 l 5 0 M 1731 1100 l 6 0 M 1771 1100 l 6 0 M 1811 1101 l 6 0 M 1852 1102 l 6 0 
M 1892 1102 l 6 1 M 1932 1103 l 6 0 M 1973 1104 l 5 0 M 2013 1105 l 3 0 l 3 0 M 2053 1106 l 6 0 
M 2094 1107 l 5 0 M 2134 1108 l 6 0 M 2174 1109 l 6 1 M 2214 1111 l 6 0 M 2255 1112 l 6 0 M 2295 1114 l 6 0 
M 2335 1115 l 6 0 M 2376 1117 l 5 0 M 2416 1119 l 6 0 M 2456 1121 l 6 0 M 2496 1123 l 6 0 M 2537 1125 l 5 0 
M 2577 1127 l 0 0 l 6 1 M 2617 1130 l 6 0 M 2657 1133 l 6 0 M 2698 1136 l 5 0 M 2738 1139 l 5 0 
M 2778 1142 l 5 0 l 1 0 M 2818 1146 l 6 0 M 2858 1149 l 6 1 M 2898 1153 l 4 1 l 2 0 M 2938 1158 l 6 0 
M 2978 1162 l 6 1 M 3018 1167 l 6 1 M 3058 1173 l 2 0 l 4 1 M 3098 1178 l 6 1 M 3138 1185 l 0 0 
l 6 0 M 3178 1191 l 6 1 M 3218 1198 l 5 1 M 3257 1206 l 6 1 M 3297 1214 l 5 1 M 3336 1222 l 6 1 
M 3375 1231 l 3 1 l 3 1 M 3415 1241 l 5 1 M 3453 1251 l 3 1 l 3 1 M 3492 1263 l 6 1 M 3531 1275 l 0 0 
l 5 1 M 3569 1287 l 5 2 M 3607 1301 l 5 2 M 3645 1315 l 4 2 l 1 0 M 3682 1330 l 5 3 M 3719 1347 l 5 2 
M 3755 1364 l 5 3 M 3791 1382 l 5 3 M 3827 1402 l 4 2 l 1 0 M 3861 1422 l 1 0 l 4 3 M 3895 1443 l 5 4 
M 3929 1466 l 1 0 l 4 3 M 3962 1490 l 4 3 M 3993 1514 l 5 4 M 4025 1540 l 4 4 M 4055 1567 l 2 2 
l 2 2 M 4084 1594 l 4 4 M 4112 1623 l 4 4 M 4140 1653 l 3 4 M 4166 1683 l 3 4 l 1 0 M 4192 1714 l 3 5 
M 4216 1746 l 3 5 M 4240 1779 l 3 5 M 4262 1812 l 3 5 M 4284 1846 l 1 2 l 2 3 M 4305 1881 l 3 5 
M 4325 1916 l 3 5 M 4344 1951 l 3 5 M 4362 1987 l 2 4 l 1 1 M 4380 2023 l 1 2 l 1 4 M 4397 2060 l 2 5 
M 4413 2097 l 2 5 M 4429 2134 l 2 5 M 4443 2172 l 2 5 M 4458 2209 l 2 6 M 4471 2247 l 1 2 l 1 4 
M 4484 2285 l 2 6 M 4497 2324 l 2 5 M 4509 2362 l 2 6 M 4521 2401 l 1 5 M 4532 2440 l 1 5 M 4542 2478 l 2 6 
M 4553 2517 l 1 6 M 4562 2557 l 2 5 M 4572 2596 l 1 5 M 4581 2635 l 1 6 M 4590 2674 l 1 6 M 4598 2714 l 1 5 
M 4606 2753 l 1 6 M 4614 2793 l 1 5 M 4622 2832 l 1 6 M 4629 2872 l 1 6 M 4636 2912 l 1 5 M 4643 2951 l 1 6 
M 4650 2991 l 0 6 M 4656 3031 l 0 2 l 1 4 M 4662 3071 l 1 6 M 4668 3111 l 1 5 M 4674 3151 l 1 5 
M 4679 3191 l 1 5 M 4685 3230 l 0 6 M 4690 3270 l 1 6 M 4695 3310 l 1 6 M 4700 3350 l 1 6 M 4705 3390 l 0 6 
M 4709 3431 l 1 5 M 4714 3471 l 0 5 M 4718 3511 l 1 5 M 4722 3551 l 1 5 M 4726 3591 l 1 6 M 4730 3631 l 1 6 
M 4734 3671 l 1 6 M 4738 3711 l 1 6 M 4742 3751 l 0 6 M 4745 3792 l 1 5 M 4749 3832 l 0 5 M 4752 3872 l 1 6 
M 4756 3912 l 0 6 M 4759 3952 l 0 6 M 4762 3992 l 1 6 M 4765 4033 l 1 5 M 4768 4073 l 1 6 M 4771 4113 l 1 6 
M 4775 4153 l 0 6 M 4778 4193 l 0 6 M 4780 4234 l 1 5 M 4783 4274 l 1 6 M 4786 4314 l 1 6 M 4789 4354 l 0 6 
M 4792 4394 l 0 5 l 0 1 M 4795 4435 l 0 5 M 4798 4475 l 0 6 M 4801 4515 l 0 6 M 4804 4555 l 0 6 
M 4806 4595 l 1 6 M 4810 4636 l 0 5 M 4813 4676 l 1 6 M 4817 4716 l 0 6 M 4821 4756 l 0 6 M 4827 4796 l 1 5 
M 4835 4835 l 1 6 M 4845 4809 l 2 -5 M 4853 4770 l 0 -6 M 4856 4730 l 1 -6 M 4860 4690 l 1 -6 M 4864 4649 l 0 -5 
M 4867 4609 l 0 -5 M 4869 4569 l 1 -6 M 4872 4529 l 0 -6 M 4875 4489 l 0 -6 M 4877 4448 l 1 -5 M 4880 4408 l 0 -6 
M 4882 4368 l 1 -6 M 4885 4328 l 0 -6 M 4887 4287 l 1 -5 M 4890 4247 l 0 -6 M 4892 4207 l 0 -6 M 4895 4167 l 0 -6 
M 4897 4127 l 0 -6 M 4900 4086 l 0 -5 M 4902 4046 l 0 -6 M 4905 4006 l 0 -6 M 4907 3966 l 0 -6 M 4910 3925 l 0 -5 
M 4912 3885 l 1 -6 M 4915 3845 l 0 -6 M 4918 3805 l 0 -6 M 4920 3764 l 1 -5 M 4923 3724 l 0 -6 M 4926 3684 l 0 -6 
M 4929 3644 l 0 -6 M 4931 3604 l 1 -6 M 4934 3563 l 1 -5 M 4937 3523 l 1 -6 M 4940 3483 l 1 -6 M 4943 3443 l 1 -6 
M 4947 3403 l 0 -6 M 4950 3362 l 0 -5 M 4953 3322 l 0 -6 M 4956 3282 l 1 -6 M 4960 3242 l 0 -6 M 4963 3202 l 1 -6 
M 4966 3162 l 1 -6 M 4970 3121 l 0 -5 M 4974 3081 l 0 -6 M 4977 3041 l 1 -6 M 4981 3001 l 1 -6 M 4985 2961 l 0 -6 
M 4989 2921 l 0 -6 M 4993 2881 l 0 -6 M 4997 2840 l 0 -5 M 5001 2800 l 0 -5 M 5005 2760 l 1 -5 M 5009 2720 l 1 -6 
M 5014 2680 l 0 -6 M 5018 2640 l 1 -6 M 5023 2600 l 0 -6 M 5027 2560 l 0 -3 l 1 -3 M 5032 2520 l 0 -6 
M 5037 2480 l 0 -6 M 5041 2440 l 1 -4 l 0 -2 M 5046 2400 l 1 -6 M 5051 2360 l 1 -6 M 5056 2320 l 0 0 
l 1 -6 M 5062 2280 l 0 -6 M 5067 2240 l 1 -6 M 5072 2200 l 1 -6 M 5078 2160 l 1 -6 M 5083 2120 l 1 -6 
M 5089 2080 l 1 -6 M 5095 2040 l 1 -5 M 5101 2000 l 0 -5 M 5107 1960 l 0 -5 M 5113 1921 l 0 -6 M 5119 1881 l 1 -6 
M 5125 1841 l 1 -6 M 5131 1801 l 1 -6 M 5138 1761 l 1 -5 M 5144 1722 l 1 -6 M 5151 1682 l 1 -6 M 5158 1642 l 1 -5 
l 0 -1 M 5165 1602 l 1 -5 M 5172 1563 l 1 -6 M 5179 1523 l 1 -6 M 5186 1483 l 1 -5 M 5193 1444 l 1 -6 
M 5200 1404 l 1 -6 M 5208 1364 l 1 -5 M 5215 1325 l 1 -5 l 1 -1 M 5223 1285 l 1 -5 M 5231 1246 l 0 -1 
l 1 -5 M 5239 1206 l 1 -6 M 5247 1167 l 1 -6 M 5255 1127 l 1 -6 M 5263 1088 l 1 -6 M 5272 1048 l 1 -5 
M 5280 1009 l 1 -6 M 5288 969 l 1 0 l 1 -5 M 5297 930 l 1 -6 M 5306 891 l 1 -6 M 5315 851 l 1 -5 
M 5324 812 l 1 -6 M 5333 773 l 1 -6 M 5342 733 l 1 -5 M 5351 694 l 1 -5 M 5360 655 l 1 -3 l 1 -3 
M 5370 616 l 1 -6 M 5379 577 l 1 -1 M 1167 4902 l 5 0 M 1207 4902 l 6 0 M 1247 4902 l 6 0 M 1287 4902 l 6 0 
M 1328 4902 l 6 0 M 1368 4902 l 6 0 M 1408 4902 l 6 0 M 1449 4902 l 5 0 M 1489 4902 l 6 0 M 1529 4902 l 6 0 
M 1570 4902 l 5 0 M 1610 4902 l 6 0 M 1650 4902 l 6 0 M 1691 4902 l 5 0 M 1731 4902 l 6 0 M 1771 4902 l 6 0 
M 1812 4902 l 5 0 M 1852 4902 l 6 0 M 1892 4902 l 6 0 M 1932 4902 l 6 0 M 1973 4902 l 6 0 M 2013 4902 l 3 0 
l 3 0 M 2053 4902 l 6 0 M 2094 4902 l 5 0 M 2134 4902 l 6 0 M 2174 4902 l 6 0 M 2215 4902 l 5 0 
M 2255 4902 l 6 0 M 2295 4902 l 6 0 M 2336 4902 l 5 0 M 2376 4902 l 6 0 M 2416 4902 l 6 0 M 2457 4902 l 5 0 
M 2497 4902 l 6 0 M 2537 4902 l 6 0 M 2577 4901 l 6 0 M 2618 4901 l 6 0 M 2658 4901 l 6 0 M 2698 4901 l 6 0 
M 2739 4901 l 5 0 M 2779 4901 l 4 0 l 2 0 M 2819 4901 l 6 0 M 2860 4901 l 5 0 l 0 0 M 2900 4901 l 2 0 
l 4 0 M 2940 4901 l 6 0 M 2981 4900 l 5 0 M 3021 4900 l 6 0 M 3061 4900 l 6 0 M 3102 4900 l 5 0 
M 3142 4899 l 6 0 M 3182 4899 l 3 0 l 3 0 M 3222 4899 l 6 -1 M 3263 4898 l 6 0 M 3303 4898 l 5 -1 
l 1 0 M 3343 4897 l 1 0 l 5 0 M 3384 4896 l 5 0 M 3424 4895 l 2 0 l 4 0 M 3464 4894 l 6 0 
M 3505 4893 l 0 0 l 5 0 M 3545 4892 l 6 0 M 3585 4891 l 6 0 M 3625 4889 l 2 0 l 4 0 M 3666 4888 l 3 0 
l 2 -1 M 3706 4886 l 3 0 l 3 -1 M 3746 4883 l 1 0 l 5 0 M 3786 4881 l 6 0 M 3827 4878 l 4 0 
l 1 0 M 3867 4875 l 6 -1 M 3907 4871 l 2 0 l 4 -1 M 3947 4867 l 3 0 l 3 -1 M 3987 4862 l 0 0 
l 6 -1 M 4027 4857 l 6 -1 M 4067 4851 l 6 -1 M 4107 4844 l 5 -1 M 4146 4836 l 5 -1 l 1 0 M 4186 4827 l 1 0 
l 4 -1 M 4225 4818 l 5 -2 M 4264 4807 l 5 -1 M 4302 4795 l 6 -1 M 4340 4782 l 6 -2 M 4378 4768 l 3 -1 
l 2 -1 M 4415 4752 l 5 -2 M 4452 4735 l 4 -2 l 1 0 M 4488 4717 l 0 0 l 5 -3 M 4523 4698 l 5 -3 
M 4557 4677 l 5 -4 M 4591 4654 l 5 -3 M 4624 4631 l 3 -2 l 1 -1 M 4656 4606 l 0 0 l 4 -3 M 4687 4581 l 0 -1 
l 4 -3 M 4717 4554 l 1 0 l 4 -4 M 4747 4527 l 0 0 l 4 -4 M 4775 4498 l 2 -1 l 2 -3 M 4803 4469 l 4 -3 
l 0 -1 M 4831 4440 l 3 -5 M 4857 4409 l 4 -4 M 4883 4378 l 4 -4 M 4908 4347 l 2 -3 l 2 -2 M 4933 4315 l 3 -5 
M 4957 4283 l 3 -5 M 4980 4250 l 4 -5 M 5003 4217 l 4 -5 M 5026 4183 l 1 -1 l 2 -3 M 5048 4150 l 3 -5 
M 5070 4116 l 1 -2 l 2 -3 M 5091 4082 l 3 -5 M 5112 4047 l 3 -4 l 0 -1 M 5133 4013 l 3 -5 M 5154 3978 l 2 -5 
M 5174 3943 l 3 -5 M 5194 3908 l 2 -5 M 5213 3873 l 3 -5 M 5233 3837 l 2 -5 M 5252 3802 l 3 -5 M 5271 3766 l 2 -5 
M 5290 3731 l 2 -5 M 5308 3695 l 3 -5 M 5327 3659 l 2 -5 M 5345 3623 l 2 -3 l 0 -2 M 5363 3587 l 2 -5 
M 5381 3551 l 2 -5 M 5399 3515 l 2 -5 M 5416 3479 l 3 -5 l 0 -1 M 5434 3442 l 2 -5 M 5451 3406 l 3 -5 
M 5469 3370 l 2 -6 M 5486 3333 l 2 -5 M 5503 3297 l 2 -4 l 1 -1 M 5520 3260 l 3 -5 M 5537 3224 l 3 -6 
M 5554 3187 l 3 -5 M 5571 3150 l 2 -5 M 5588 3114 l 2 -5 M 5604 3077 l 1 -2 l 2 -3 M 5621 3040 l 3 -5 
M 5638 3004 l 2 -6 M 5654 2967 l 3 -5 M 5671 2930 l 2 -5 M 5687 2893 l 2 -5 M 5704 2856 l 2 -5 M 5720 2820 l 0 -1 
l 2 -5 M 5736 2783 l 2 -6 M 5752 2746 l 3 -5 M 5769 2709 l 2 -5 M 5785 2672 l 2 -5 M 5801 2635 l 2 -5 
M 5817 2598 l 2 -5 M 5833 2561 l 1 -1 l 1 -4 M 5849 2524 l 2 -5 M 5865 2487 l 2 -5 M 5881 2450 l 2 -5 
M 5897 2413 l 2 -5 M 5913 2376 l 2 -5 M 5929 2339 l 2 -5 M 5945 2302 l 2 -5 M 5961 2265 l 1 -2 l 1 -3 
M 5977 2228 l 2 -5 M 5992 2191 l 3 -5 M 6008 2154 l 2 -6 M 6024 2117 l 2 -6 M 6040 2080 l 2 -6 M 6056 2042 l 2 -5 
M 6071 2005 l 3 -5 M 6087 1968 l 2 -5 M 6103 1931 l 1 -2 l 1 -3 M 6119 1894 l 2 -5 M 6134 1857 l 2 -5 
M 6150 1820 l 2 -6 M 6166 1783 l 2 -6 M 6181 1745 l 3 -5 M 6197 1708 l 2 -5 M 6213 1671 l 2 -5 M 6228 1634 l 3 -5 
M 6244 1597 l 1 -3 l 1 -2 M 6260 1560 l 2 -6 M 6275 1523 l 2 -6 M 6291 1485 l 2 -5 M 6306 1448 l 3 -5 
M 6322 1411 l 2 -5 M 6338 1374 l 2 -5 M 6353 1337 l 2 -6 M 6369 1300 l 2 -6 M 6384 1262 l 3 -5 M 6400 1225 l 1 -3 
l 1 -2 M 6416 1188 l 2 -5 M 6431 1151 l 2 -6 M 6447 1114 l 2 -6 M 6462 1076 l 3 -5 M 6478 1039 l 2 -5 
M 6493 1002 l 3 -5 M 6509 965 l 2 -5 M 6525 928 l 2 -6 M 6540 890 l 2 -5 M 6556 853 l 1 -3 l 1 -2 
M 6571 816 l 2 -5 M 6587 779 l 2 -5 M 6602 742 l 2 -6 M 6618 704 l 2 -5 M 6633 667 l 3 -5 M 6649 630 l 2 -5 
M 6664 593 l 3 -5 "/>
</g>
<g style="color: rgb(0, 0, 0); fill: currentColor; stroke: currentColor; stroke-width: 8">
<text transform='translate(370,2016) scale(1,-1) rotate(-90)'><tspan class='fr' style='font-size: 886%;'  >Photons&#x00A0;cm<tspan style='font-size: 60%;'  dy='-0.6em'>&#x2212;2<tspan style='font-size: 166.667%;'  dy='+0.36em'>&#x00A0;s<tspan style='font-size: 60%;'  dy='-0.6em'>&#x2212;1<tspan style='font-size: 166.667%;'  dy='+0.36em'>&#x00A0;keV<tspan style='font-size: 60%;'  dy='-0.6em'>&#x2212;1<tspan style='font-size: 166.667%;'  dy='+0.36em'></tspan></tspan></tspan></tspan></tspan></tspan></tspan></text>
<text transform='translate(3207,215) scale(1,-1)'><tspan class='fr' style='font-size: 886%;'  >Energy&#x00A0;(keV)</tspan></text>
<text transform='translate(2667,5442) scale(1,-1)'><tspan class='fr' style='font-size: 886%;'  >Current&#x00A0;Theoretical&#x00A0;Model</tspan></text>
</g>
<g style="color: rgb(0, 0, 0); fill: currentColor; stroke: currentColor; stroke-width: 4">
<text transform='translate(6534,46) scale(1,-1)'><tspan class='fn' style='font-size: 531.6%;'  >&#x00A0;10&#x2212;Oct&#x2212;2022&#x00A0;07:52</tspan></text>
</g>
<!-- _PGPLOT_SVG_ATEND: viewbox="          225.691208            45.374001          7369.065918          5600.616211" -->
</svg>
