<svg xmlns="http://www.w3.org/2000/svg" xmlns:xlink="http://www.w3.org/1999/xlink" 
style="fill-rule: nonzero; stroke-linecap: round; stroke-linejoin: round; transform: scale(1,-1);" 
version="1.1" 
viewbox="          -71.657761           -88.998619          6884.404785          5166.998535" 
width="100%" height="100%" preserveAspectRatio="xMidYMid" 
>
<style>
  .fn { font-family: Arial,Helvetica,sans-serif; }
  .fN { font-family: Arial,Helvetica,sans-serif; font-weight: bold;}
  .fr { font-family: Times,Times-Roman,Times New Roman,serif; }
  .fR { font-family: Times,Times-Roman,Times New Roman,serif; font-weight: bold;}
  .fi { font-family: Times,Times-Roman,Times New Roman,serif; font-style: italic;}
  .fI { font-family: Times,Times-Roman,Times New Roman,serif; font-style: italic; font-weight: bold;}
  .fs { font-family: Zapf-Chancery,Apple Chancery,URW Chancery L,cursive;}
  .fS { font-family: Zapf-Chancery,Apple Chancery,URW Chancery L,cursive;font-weight:bold}
  .fc { font-family: Arial Narrow,Helvetica Narrow,Arial,Helvetica,sans-serif;}
  .fC { font-family: Arial Narrow,Helvetica Narrow,Arial,Helvetica,sans-serif; font-weight:bold;}
</style>
<g style="color: rgb(0, 0, 0); fill: currentColor; stroke: currentColor; stroke-width: 8">

<path fill="none" d="M 890 691 l 5639 0 l 0 4377 l -5639 0 l 0 -4377 l 0 133 M 1739 691 l 0 67 M 2235 691 l 0 67 M 2588 691 l 0 67 
M 2861 691 l 0 67 M 3084 691 l 0 67 M 3273 691 l 0 67 M 3436 691 l 0 67 M 3580 691 l 0 67 M 3710 691 l 0 133 
M 4558 691 l 0 67 M 5055 691 l 0 67 M 5407 691 l 0 67 M 5680 691 l 0 67 M 5903 691 l 0 67 M 6092 691 l 0 67 
M 6256 691 l 0 67 M 6400 691 l 0 67 M 6529 691 l 0 133 M 890 4935 l 0 133 M 1739 5001 l 0 67 M 2235 5001 l 0 67 
M 2588 5001 l 0 67 M 2861 5001 l 0 67 M 3084 5001 l 0 67 M 3273 5001 l 0 67 M 3436 5001 l 0 67 M 3580 5001 l 0 67 
M 3710 4935 l 0 133 M 4558 5001 l 0 67 M 5055 5001 l 0 67 M 5407 5001 l 0 67 M 5680 5001 l 0 67 M 5903 5001 l 0 67 
M 6092 5001 l 0 67 M 6256 5001 l 0 67 M 6400 5001 l 0 67 M 6529 4935 l 0 133 "/>
<text transform='translate(667,345) scale(1,-1)'><tspan class='fr' style='font-size: 1772%;'  >0.1</tspan></text>
<text transform='translate(3620,345) scale(1,-1)'><tspan class='fr' style='font-size: 1772%;'  >1</tspan></text>
<text transform='translate(6351,345) scale(1,-1)'><tspan class='fr' style='font-size: 1772%;'  >10</tspan></text>

<path fill="none" d="M 890 768 l 67 0 M 890 895 l 67 0 M 890 1003 l 67 0 M 890 1096 l 67 0 M 890 1179 l 67 0 M 890 1252 l 133 0 
M 890 1737 l 67 0 M 890 2020 l 67 0 M 890 2221 l 67 0 M 890 2377 l 67 0 M 890 2505 l 67 0 M 890 2613 l 67 0 
M 890 2706 l 67 0 M 890 2788 l 67 0 M 890 2862 l 133 0 M 890 3347 l 67 0 M 890 3630 l 67 0 M 890 3831 l 67 0 
M 890 3987 l 67 0 M 890 4115 l 67 0 M 890 4223 l 67 0 M 890 4316 l 67 0 M 890 4398 l 67 0 M 890 4472 l 133 0 
M 890 4956 l 67 0 M 6462 768 l 67 0 M 6462 895 l 67 0 M 6462 1003 l 67 0 M 6462 1096 l 67 0 M 6462 1179 l 67 0 
M 6396 1252 l 133 0 M 6462 1737 l 67 0 M 6462 2020 l 67 0 M 6462 2221 l 67 0 M 6462 2377 l 67 0 M 6462 2505 l 67 0 
M 6462 2613 l 67 0 M 6462 2706 l 67 0 M 6462 2788 l 67 0 M 6396 2862 l 133 0 M 6462 3347 l 67 0 M 6462 3630 l 67 0 
M 6462 3831 l 67 0 M 6462 3987 l 67 0 M 6462 4115 l 67 0 M 6462 4223 l 67 0 M 6462 4316 l 67 0 M 6462 4398 l 67 0 
M 6396 4472 l 133 0 M 6462 4956 l 67 0 "/>
<text transform='translate(688,1029) scale(1,-1) rotate(-90)'><tspan class='fr' style='font-size: 1772%;'  >0.1</tspan></text>
<text transform='translate(688,2773) scale(1,-1) rotate(-90)'><tspan class='fr' style='font-size: 1772%;'  >1</tspan></text>
<text transform='translate(688,4294) scale(1,-1) rotate(-90)'><tspan class='fr' style='font-size: 1772%;'  >10</tspan></text>

<path fill="none" d="M 909 4804 l 91 0 l 84 0 l 79 0 l 75 0 l 70 0 l 66 0 l 63 0 l 59 -1 l 57 0 l 55 0 
l 52 0 l 50 0 l 48 0 l 46 -1 l 45 0 l 43 0 l 41 0 l 40 0 l 39 -1 l 38 0 l 36 0 
l 36 0 l 34 -1 l 34 0 l 33 0 l 31 0 l 31 -1 l 31 0 l 29 0 l 43 -1 l 55 0 l 53 -1 
l 50 -1 l 49 0 l 46 -1 l 45 -1 l 44 -1 l 42 0 l 40 -1 l 39 -1 l 38 -1 l 37 -1 l 36 -1 
l 35 -1 l 33 -1 l 33 -1 l 32 -1 l 31 -1 l 31 -1 l 29 -1 l 29 -2 l 36 -1 l 41 -2 l 39 -2 
l 39 -2 l 37 -2 l 36 -2 l 36 -2 l 34 -2 l 33 -2 l 32 -3 l 32 -2 l 31 -2 l 30 -3 l 29 -2 
l 33 -3 l 37 -4 l 36 -3 l 35 -4 l 34 -3 l 33 -4 l 32 -4 l 31 -4 l 31 -4 l 29 -4 l 30 -4 
l 31 -4 l 35 -5 l 33 -6 l 33 -5 l 32 -5 l 31 -5 l 30 -6 l 30 -5 l 28 -5 l 31 -6 l 33 -6 
l 32 -7 l 31 -6 l 31 -6 l 30 -5 l 29 -6 l 30 -5 l 32 -6 l 32 -4 l 30 -4 l 30 -3 l 29 -1 
l 31 0 l 31 4 l 31 7 l 30 12 l 30 19 l 28 28 l 30 41 l 31 61 l 30 78 l 29 90 l 29 83 
l 29 40 l 30 -37 l 30 -101 l 29 -122 l 29 -118 l 31 -102 l 29 -81 l 29 -65 l 29 -55 l 30 -48 l 29 -41 
l 29 -36 l 29 -34 l 30 -32 l 28 -29 l 30 -29 l 29 -28 l 29 -27 l 29 -27 l 30 -27 l 29 -26 l 29 -26 
l 29 -26 l 29 -26 l 28 -26 l 29 -26 l 30 -27 l 29 -26 l 28 -27 l 29 -26 l 29 -27 l 29 -27 l 29 -27 
l 29 -28 l 29 -27 l 29 -28 l 29 -28 l 29 -28 l 28 -28 l 29 -29 l 29 -28 l 29 -29 l 28 -28 l 29 -29 
l 29 -29 l 28 -29 l 29 -29 l 29 -30 l 29 -30 l 28 -29 "/>
</g>
<g style="color: rgb(0, 0, 0); fill: currentColor; stroke: currentColor; stroke-width: 4">

<path fill="none" d="M 909 1226 l 6 0 M 950 1227 l 5 0 M 990 1229 l 6 0 M 1030 1231 l 6 0 M 1070 1232 l 6 0 M 1111 1234 l 5 0 
M 1151 1236 l 6 0 M 1191 1238 l 6 0 M 1231 1240 l 6 0 M 1272 1242 l 5 0 M 1312 1244 l 6 0 M 1352 1246 l 6 0 
M 1392 1248 l 6 1 M 1433 1251 l 4 0 l 1 0 M 1473 1253 l 6 1 M 1513 1256 l 6 0 M 1553 1258 l 6 1 
M 1594 1261 l 5 0 M 1634 1264 l 6 0 M 1674 1267 l 6 0 M 1714 1270 l 6 0 M 1754 1273 l 4 0 l 2 0 
M 1795 1276 l 5 0 M 1835 1279 l 6 1 M 1875 1283 l 6 0 M 1915 1286 l 6 1 M 1955 1290 l 6 1 M 1995 1294 l 6 0 
M 2036 1298 l 5 0 M 2076 1302 l 5 0 M 2116 1306 l 5 1 M 2156 1310 l 0 1 l 6 0 M 2196 1315 l 6 1 
M 2236 1320 l 6 0 M 2276 1325 l 6 0 M 2316 1330 l 6 0 M 2356 1335 l 6 1 M 2396 1340 l 6 1 M 2436 1346 l 5 1 
M 2476 1352 l 5 1 M 2515 1358 l 6 1 M 2555 1364 l 6 1 M 2595 1371 l 6 1 M 2635 1378 l 5 1 M 2675 1385 l 5 1 
M 2714 1392 l 6 1 M 2754 1399 l 5 2 M 2793 1407 l 6 1 M 2833 1415 l 5 2 M 2872 1424 l 6 1 M 2912 1433 l 5 1 
M 2951 1442 l 5 1 M 2990 1451 l 6 1 M 3029 1461 l 1 0 l 5 1 M 3068 1471 l 6 1 M 3107 1481 l 6 2 
M 3146 1492 l 5 2 M 3185 1503 l 1 1 l 4 1 M 3223 1515 l 6 2 M 3262 1527 l 5 2 M 3300 1540 l 5 2 
M 3338 1553 l 6 2 M 3376 1566 l 6 2 M 3414 1580 l 5 3 M 3452 1595 l 5 2 M 3489 1610 l 5 2 M 3526 1626 l 5 2 
M 3563 1642 l 5 2 M 3600 1658 l 5 3 M 3636 1676 l 5 2 l 0 0 M 3672 1694 l 5 2 M 3708 1712 l 5 3 
M 3743 1731 l 6 3 M 3779 1751 l 5 3 M 3813 1772 l 5 3 M 3848 1793 l 5 3 M 3882 1814 l 5 4 M 3915 1837 l 5 3 
M 3948 1860 l 5 3 M 3981 1884 l 4 3 M 4013 1908 l 4 4 M 4044 1933 l 5 4 M 4075 1959 l 5 4 M 4106 1985 l 4 4 
M 4136 2012 l 4 4 M 4165 2040 l 4 4 M 4194 2068 l 4 4 M 4222 2097 l 3 3 l 1 1 M 4249 2127 l 4 4 
M 4276 2157 l 4 4 M 4302 2188 l 4 4 M 4328 2219 l 3 4 M 4353 2250 l 3 5 M 4377 2283 l 3 4 M 4400 2315 l 4 5 
M 4423 2349 l 3 4 M 4446 2382 l 3 5 M 4467 2416 l 3 5 M 4488 2451 l 3 5 M 4509 2485 l 2 5 M 4528 2521 l 3 5 
M 4547 2556 l 3 5 M 4566 2592 l 3 5 M 4584 2628 l 3 5 M 4601 2664 l 3 5 M 4618 2701 l 3 5 M 4635 2738 l 2 5 
M 4651 2775 l 2 5 M 4666 2812 l 2 5 M 4681 2849 l 2 6 M 4695 2887 l 2 6 M 4709 2925 l 2 5 M 4723 2963 l 2 5 
M 4736 3001 l 2 5 M 4749 3039 l 1 6 M 4761 3078 l 1 5 M 4773 3116 l 1 6 M 4784 3155 l 2 5 M 4795 3194 l 2 5 
M 4806 3232 l 2 6 M 4817 3271 l 1 6 M 4827 3310 l 1 6 M 4837 3349 l 0 1 l 1 5 M 4846 3389 l 2 5 
M 4856 3428 l 1 5 M 4865 3467 l 1 6 M 4874 3506 l 1 6 M 4882 3546 l 1 5 M 4890 3585 l 2 6 M 4899 3625 l 1 5 
M 4906 3664 l 1 6 M 4914 3704 l 1 5 M 4922 3743 l 1 6 M 4929 3783 l 1 6 M 4936 3823 l 1 5 M 4943 3862 l 1 6 
M 4950 3902 l 1 6 M 4957 3942 l 1 6 M 4963 3982 l 1 5 M 4969 4022 l 1 5 M 4976 4061 l 1 6 M 4982 4101 l 1 6 
M 4988 4141 l 1 6 M 4994 4181 l 1 6 M 5000 4221 l 1 5 M 5006 4261 l 1 5 M 5012 4300 l 1 6 M 5018 4340 l 1 6 
M 5024 4380 l 1 6 M 5030 4420 l 1 6 M 5037 4460 l 0 6 M 5043 4500 l 0 5 M 5049 4539 l 2 6 M 5057 4579 l 1 6 
M 5064 4619 l 1 5 M 5072 4658 l 1 6 M 5084 4696 l 2 6 M 5099 4734 l 2 5 M 5119 4718 l 3 -5 M 5136 4682 l 1 -5 
M 5143 4643 l 1 -6 M 5150 4603 l 2 -5 M 5158 4564 l 1 -6 M 5165 4524 l 0 -6 M 5170 4484 l 1 -6 M 5176 4444 l 0 -6 
M 5181 4404 l 1 -6 M 5187 4364 l 0 -6 M 5192 4324 l 1 -6 M 5197 4284 l 1 -6 M 5202 4244 l 1 -6 M 5207 4204 l 1 -6 
M 5212 4164 l 1 -6 M 5217 4124 l 1 -6 M 5223 4084 l 0 -5 M 5228 4044 l 1 -5 M 5233 4004 l 1 -5 M 5238 3964 l 1 -5 
M 5244 3924 l 0 -5 M 5249 3884 l 1 -5 M 5254 3844 l 1 -5 M 5260 3804 l 1 -5 M 5265 3765 l 1 -6 M 5271 3725 l 1 -6 
M 5277 3685 l 0 -6 M 5282 3645 l 1 -6 M 5288 3605 l 1 -6 M 5294 3565 l 1 -6 M 5300 3525 l 1 -5 M 5306 3485 l 1 -5 
M 5313 3446 l 1 -6 M 5319 3406 l 1 -6 M 5326 3366 l 1 -6 M 5332 3326 l 1 -5 M 5339 3286 l 0 -1 l 1 -4 
M 5346 3247 l 1 -6 M 5353 3207 l 1 -6 M 5360 3167 l 1 -5 M 5367 3128 l 1 -6 M 5375 3088 l 1 -6 M 5383 3049 l 1 -6 
M 5390 3009 l 1 -6 M 5398 2969 l 0 -2 l 1 -3 M 5406 2930 l 1 -6 M 5414 2890 l 1 -5 M 5422 2851 l 2 -6 
M 5431 2812 l 1 -6 M 5440 2772 l 1 -5 M 5448 2733 l 2 -6 M 5457 2694 l 2 -6 M 5466 2654 l 2 -5 M 5476 2615 l 1 -6 
M 5485 2576 l 1 -3 l 0 -3 M 5495 2537 l 1 -6 M 5505 2498 l 1 -6 M 5514 2458 l 0 0 l 2 -5 M 5525 2419 l 1 -5 
M 5535 2381 l 1 -6 M 5545 2342 l 2 -6 M 5556 2303 l 2 -6 M 5567 2264 l 1 -6 M 5578 2225 l 1 -5 M 5589 2186 l 2 -5 
M 5600 2148 l 2 -6 M 5612 2109 l 2 -5 M 5624 2071 l 2 -6 M 5636 2032 l 2 -5 M 5648 1994 l 2 -6 M 5660 1955 l 1 -2 
l 1 -3 M 5673 1917 l 2 -6 M 5685 1879 l 2 -6 M 5698 1840 l 2 -5 M 5711 1802 l 2 -5 M 5725 1764 l 2 -5 
M 5738 1726 l 2 -5 M 5752 1688 l 2 -5 M 5766 1650 l 2 -5 M 5780 1613 l 2 -6 M 5794 1575 l 2 -5 M 5808 1537 l 2 -5 
M 5823 1500 l 2 -6 M 5838 1462 l 2 -5 M 5853 1425 l 2 -6 M 5868 1387 l 2 -5 M 5883 1350 l 2 -5 M 5899 1313 l 2 -5 
M 5914 1276 l 3 -6 M 5930 1239 l 3 -6 M 5946 1202 l 3 -6 M 5963 1165 l 2 -5 M 5979 1128 l 0 0 l 2 -5 
M 5996 1091 l 2 -5 M 6012 1055 l 3 -6 M 6029 1018 l 3 -5 M 6046 982 l 3 -6 M 6064 945 l 2 -5 l 0 0 
M 6081 909 l 3 -5 M 6099 872 l 2 -5 M 6116 836 l 3 -5 M 6134 800 l 3 -5 M 6152 764 l 1 -1 l 2 -4 
M 6171 728 l 2 -5 M 6189 692 l 1 -1 M 909 4800 l 6 0 M 950 4800 l 5 0 M 990 4800 l 6 0 M 1030 4800 l 6 0 
M 1071 4800 l 5 0 M 1111 4800 l 6 0 M 1151 4800 l 6 0 M 1191 4800 l 6 0 M 1232 4800 l 6 0 M 1272 4800 l 6 0 
M 1312 4799 l 6 0 M 1353 4799 l 5 0 M 1393 4799 l 6 0 M 1433 4799 l 4 0 l 2 0 M 1474 4799 l 5 0 
M 1514 4799 l 6 0 M 1554 4799 l 6 0 M 1595 4799 l 5 0 M 1635 4799 l 6 0 M 1675 4798 l 6 0 M 1716 4798 l 5 0 
M 1756 4798 l 2 0 l 4 0 M 1796 4798 l 6 0 M 1836 4798 l 6 0 M 1877 4798 l 6 0 M 1917 4797 l 6 0 
M 1957 4797 l 6 0 M 1998 4797 l 5 0 M 2038 4797 l 6 0 M 2078 4796 l 6 0 M 2119 4796 l 3 0 l 2 0 
M 2159 4796 l 6 0 M 2199 4795 l 6 0 M 2240 4795 l 5 0 M 2280 4795 l 5 0 l 1 0 M 2320 4794 l 6 0 
M 2361 4794 l 5 0 M 2401 4793 l 6 0 M 2441 4793 l 2 0 l 4 0 M 2481 4792 l 6 0 M 2522 4792 l 6 0 
M 2562 4791 l 6 0 M 2602 4790 l 6 0 M 2643 4790 l 5 0 M 2683 4789 l 3 0 l 3 0 M 2723 4788 l 6 0 
M 2764 4787 l 5 0 M 2804 4786 l 6 0 M 2844 4785 l 6 0 M 2884 4784 l 5 0 l 1 0 M 2925 4783 l 1 0 
l 5 0 M 2965 4782 l 6 0 M 3005 4781 l 6 0 M 3046 4780 l 5 -1 M 3086 4778 l 6 0 M 3126 4777 l 0 0 
l 6 -1 M 3167 4775 l 5 0 M 3207 4773 l 6 0 M 3247 4771 l 4 0 l 2 0 M 3287 4769 l 5 0 l 1 0 
M 3328 4767 l 3 0 l 2 0 M 3368 4765 l 2 0 l 4 0 M 3408 4763 l 6 -1 M 3448 4760 l 6 0 M 3489 4758 l 5 -1 
M 3529 4755 l 6 -1 M 3569 4752 l 6 -1 M 3609 4749 l 1 0 l 5 -1 M 3649 4745 l 6 0 M 3689 4742 l 6 -1 
M 3730 4738 l 3 -1 l 2 0 M 3770 4734 l 0 0 l 5 -1 M 3810 4729 l 6 0 M 3850 4725 l 6 -1 M 3890 4720 l 6 -1 
M 3930 4715 l 6 -1 M 3970 4709 l 1 0 l 4 0 M 4010 4704 l 5 -1 M 4050 4698 l 5 -1 M 4089 4691 l 3 0 
l 3 -1 M 4129 4684 l 6 -1 M 4169 4677 l 5 -1 M 4208 4670 l 6 -1 M 4248 4662 l 6 -1 M 4287 4653 l 6 -1 
M 4327 4645 l 5 -2 M 4366 4635 l 6 -1 M 4405 4626 l 3 -1 l 3 -1 M 4444 4616 l 6 -2 M 4483 4605 l 6 -2 
M 4522 4594 l 5 -2 M 4560 4582 l 1 0 l 5 -1 M 4599 4570 l 5 -1 M 4637 4558 l 6 -2 M 4675 4545 l 6 -2 
M 4713 4531 l 2 0 l 4 -2 M 4751 4517 l 5 -2 M 4789 4502 l 5 -2 M 4826 4487 l 5 -2 M 4863 4472 l 4 -2 
l 1 -1 M 4900 4456 l 5 -3 M 4937 4439 l 5 -3 M 4973 4422 l 5 -3 M 5010 4404 l 5 -2 M 5046 4386 l 5 -3 
M 5081 4367 l 5 -2 M 5117 4348 l 5 -2 M 5152 4329 l 5 -3 M 5187 4309 l 5 -3 l 0 0 M 5222 4289 l 5 -3 
M 5257 4268 l 4 -3 M 5291 4247 l 5 -3 M 5325 4225 l 5 -3 M 5359 4203 l 5 -3 M 5392 4181 l 5 -3 M 5426 4158 l 1 -1 
l 3 -2 M 5459 4135 l 4 -3 M 5492 4112 l 4 -3 M 5524 4088 l 5 -3 M 5557 4065 l 4 -4 M 5589 4040 l 5 -3 
M 5621 4016 l 5 -4 M 5653 3991 l 4 -3 M 5685 3966 l 4 -3 M 5716 3941 l 3 -2 l 2 -2 M 5747 3915 l 1 0 
l 4 -3 M 5778 3890 l 5 -4 M 5809 3864 l 5 -4 M 5840 3838 l 4 -4 M 5871 3812 l 4 -4 M 5901 3785 l 4 -4 
M 5931 3758 l 5 -3 M 5961 3732 l 5 -4 M 5991 3705 l 5 -4 M 6021 3678 l 4 -4 M 6051 3650 l 4 -4 M 6080 3623 l 5 -4 
M 6110 3595 l 4 -3 M 6139 3568 l 4 -4 M 6169 3540 l 4 -4 M 6198 3512 l 4 -4 M 6227 3484 l 4 -4 M 6256 3456 l 4 -4 
M 6284 3428 l 4 -4 M 6313 3400 l 4 -4 M 6342 3371 l 4 -4 M 6370 3343 l 4 -4 M 6399 3314 l 4 -4 M 6427 3286 l 4 -4 
M 6455 3257 l 4 -4 M 6484 3228 l 4 -4 M 6512 3199 l 4 -4 "/>
</g>
<g style="color: rgb(0, 0, 0); fill: currentColor; stroke: currentColor; stroke-width: 8">
<text transform='translate(148,817) scale(1,-1) rotate(-90)'><tspan class='fr' style='font-size: 1772%;'  >Power&#x00A0;(Leahy&#x00A0;Normalized)</tspan></text>
<text transform='translate(2510,-28) scale(1,-1)'><tspan class='fr' style='font-size: 1772%;'  >Frequency&#x00A0;(Hz)</tspan></text>
</g>
<!-- _PGPLOT_SVG_ATEND: viewbox="          -71.657761           -88.998619          6884.404785          5166.998535" -->
</svg>
